<svg width="100" height="100" viewBox="0 0 100 100" fill="none" xmlns="http://www.w3.org/2000/svg">
<path fill-rule="evenodd" clip-rule="evenodd" d="M51.9905 21.0514C53.7587 20.5315 55.5662 20.3735 57.4131 20.5773C58.1154 20.7186 58.7932 20.9218 59.4466 21.1869C59.6266 21.3234 59.7622 21.504 59.8533 21.7288C59.8365 21.811 59.7914 21.8562 59.7177 21.8643C57.9065 21.1187 56.0085 20.8252 54.024 20.9837C53.5787 21.0865 53.172 21.2671 52.8039 21.5256C53.0646 21.635 53.3357 21.7028 53.6173 21.7288C54.5621 21.5637 55.511 21.4282 56.4642 21.3224C56.9 21.3593 57.3067 21.4722 57.6843 21.6611C56.8188 21.689 55.9603 21.7567 55.1085 21.8643C54.9444 21.9691 54.9444 22.082 55.1085 22.203C55.5667 22.2488 56.0186 22.3166 56.4642 22.4062C56.7081 22.701 56.7532 23.0171 56.5997 23.3545C55.6073 22.7226 54.7035 22.8129 53.8884 23.6254C54.4429 23.9155 55.0304 24.0962 55.6508 24.1673C55.7542 24.2714 55.8898 24.3391 56.0575 24.3706C56.4868 24.3931 56.916 24.4157 57.3454 24.4383C58.7689 24.27 60.1924 24.27 61.6156 24.4383C62.6336 24.7713 63.6277 25.2003 64.5981 25.7253C64.9869 26.0923 65.0773 26.5213 64.8692 27.0123C62.9851 25.2709 60.7709 24.5935 58.2265 24.9802C58.1384 24.939 58.048 24.8938 57.9554 24.8447C57.7617 25.0391 57.5358 25.1746 57.2776 25.2511C56.6679 25.0119 56.0352 24.8764 55.3797 24.8447C55.3797 24.7092 55.3797 24.5738 55.3797 24.4383C54.1577 24.295 52.9376 24.295 51.7194 24.4383C51.7194 24.3028 51.7194 24.1673 51.7194 24.0319C50.7694 24.0093 49.8204 24.0319 48.8725 24.0996C48.7532 24.2833 48.708 24.4865 48.737 24.7092C48.7119 24.939 48.5988 25.1196 48.3981 25.2511C48.3674 24.8996 48.2996 24.5609 48.1947 24.2351C47.6534 24.212 47.1111 24.2346 46.5679 24.3028C46.2393 24.2611 45.923 24.3063 45.619 24.4383C45.5466 24.7247 45.411 24.9731 45.2123 25.1834C44.444 25.2737 43.6759 25.2737 42.9077 25.1834C42.7436 25.0426 42.6081 24.8846 42.501 24.7092C44.7169 20.1376 48.3772 17.9023 53.4817 18.0033C53.6729 18.0531 53.8085 18.166 53.8884 18.342C51.4506 18.3187 49.1912 18.9283 47.1102 20.1709C45.2914 21.3067 44.0487 22.8647 43.3821 24.8447C44.1554 24.5148 44.901 24.131 45.619 23.6932C46.2653 23.0471 46.9883 22.5052 47.788 22.0675C48.9832 21.7104 50.2032 21.4846 51.4483 21.3901C51.6606 21.3077 51.8414 21.1948 51.9905 21.0514Z" fill="#3D1A0F"/>
<path fill-rule="evenodd" clip-rule="evenodd" d="M51.5836 21.9997C51.8584 21.9777 52.1295 22.0003 52.397 22.0674C52.5639 22.2277 52.5639 22.3857 52.397 22.5416C51.784 23.1188 51.061 23.4801 50.2279 23.6254C50.0769 23.4597 50.0543 23.2791 50.1602 23.0835C50.5513 22.5756 51.0257 22.2143 51.5836 21.9997Z" fill="#B79B87"/>
<path fill-rule="evenodd" clip-rule="evenodd" d="M49.4144 21.9998C49.8236 21.9775 50.2303 22 50.6345 22.0675C50.0622 22.8214 49.3392 23.3633 48.4655 23.6932C47.8729 23.8053 47.2854 23.7827 46.7031 23.6255C46.904 23.3568 47.13 23.1084 47.381 22.8803C48.0978 22.6468 48.7756 22.3533 49.4144 21.9998Z" fill="#B48D75"/>
<path fill-rule="evenodd" clip-rule="evenodd" d="M53.6173 22.4062C53.8346 22.3807 54.0155 22.4485 54.1596 22.6094C53.559 23.3774 52.7908 23.7161 51.855 23.6255C52.2491 22.9115 52.8365 22.5051 53.6173 22.4062Z" fill="#A98C79"/>
<path fill-rule="evenodd" clip-rule="evenodd" d="M55.3797 24.8447C54.7148 24.6576 54.0369 24.5222 53.3462 24.4383C52.8191 24.4683 52.3222 24.6038 51.855 24.8447C51.4505 24.2503 50.8857 24.0245 50.1604 24.1674C49.8215 24.2125 49.4826 24.2577 49.1437 24.3028C49.0504 24.4864 48.9149 24.6219 48.737 24.7092C48.708 24.4865 48.7533 24.2833 48.8726 24.0996C49.8205 24.0319 50.7694 24.0093 51.7194 24.0319C51.7194 24.1674 51.7194 24.3028 51.7194 24.4383C52.9376 24.295 54.1577 24.295 55.3797 24.4383C55.3797 24.5738 55.3797 24.7092 55.3797 24.8447Z" fill="#501A0D"/>
<path fill-rule="evenodd" clip-rule="evenodd" d="M48.7369 24.7093C48.9147 24.6219 49.0503 24.4864 49.1436 24.3029C49.4825 24.2577 49.8214 24.2125 50.1603 24.1674C50.8856 24.0245 51.4503 24.2503 51.8549 24.8448C52.322 24.6038 52.819 24.4684 53.3461 24.4383C54.0368 24.5222 54.7146 24.6577 55.3796 24.8448C59.6759 26.316 63.291 28.7996 66.2248 32.2958C69.7157 36.7712 72.1334 41.7837 73.4775 47.3334C73.7035 50.0663 73.9521 52.7985 74.2231 55.5296C74.1375 56.4118 74.0471 57.2924 73.952 58.1713C73.7393 58.8173 73.5812 59.4947 73.4775 60.2035C73.3448 60.5378 73.1414 60.8088 72.8674 61.0163C72.7037 61.1157 72.523 61.1609 72.3252 61.1518C71.5987 61.3566 70.9209 61.6728 70.2917 62.1001C70.2013 62.055 70.111 62.0097 70.0206 61.9646C70.2414 61.4429 70.377 60.901 70.4273 60.3389C69.3601 60.6914 68.366 61.1882 67.4448 61.8291C66.8904 62.0016 66.687 61.7759 66.8348 61.1518C67.424 60.4954 68.034 59.8631 68.6649 59.2551C67.0413 59.2129 65.4145 59.1902 63.7846 59.1874C62.0742 58.1298 60.3118 57.1814 58.4975 56.3424C57.9572 56.2748 57.4149 56.2522 56.8708 56.2747C55.1724 56.0867 53.7265 56.5835 52.5327 57.7649C52.3535 57.788 52.1953 57.7428 52.0582 57.6295C52.0131 56.1844 51.9678 54.7394 51.9226 53.2943C51.6352 52.8479 51.2511 52.5318 50.7703 52.346C50.2723 52.0269 49.73 51.7785 49.1436 51.6009C49.4402 51.3044 49.7339 51.0109 50.0247 50.7203C50.1683 50.7379 50.2812 50.8056 50.3636 50.9235C50.2449 51.1384 50.1093 51.3416 49.9569 51.5331C50.5007 51.6051 51.0203 51.7405 51.5159 51.9395C51.5837 51.8718 51.6515 51.8041 51.7193 51.7363C51.5333 51.6819 51.3526 51.6141 51.177 51.5331C50.9963 51.3977 50.9963 51.2622 51.177 51.1267C51.4845 51.2681 51.8008 51.2908 52.126 51.1944C52.2972 50.8712 52.5458 50.6229 52.8716 50.4493C53.0232 50.1425 53.1361 49.8263 53.2105 49.501C53.7098 48.7059 54.2973 47.9608 54.9729 47.2657C55.751 46.7421 56.474 46.1551 57.1419 45.5045C57.8556 45.2382 58.5335 44.8995 59.1754 44.4885C60.2508 44.198 61.2901 43.8142 62.2934 43.337C63.4935 43.2379 64.691 43.2605 65.8858 43.4047C66.3709 43.6132 66.8454 43.839 67.3093 44.0821C67.6394 44.5467 68.0913 44.7724 68.6649 44.7594C68.6874 44.1255 68.6648 43.4934 68.5971 42.8628C68.5595 42.7387 68.4917 42.6485 68.3938 42.5918C68.414 42.4493 68.3915 42.3139 68.326 42.1854C66.6744 40.8606 64.8443 40.5446 62.8356 41.2371C62.2859 41.1932 61.7437 41.2383 61.2088 41.3726C60.9191 41.4512 60.6707 41.5866 60.4632 41.779C60.2318 41.6926 59.9833 41.6926 59.7176 41.779C59.7176 41.9145 59.7176 42.0499 59.7176 42.1854C58.5114 43.2414 57.2009 44.1671 55.7862 44.9626C54.3575 46.2212 53.1374 47.6437 52.126 49.2301C51.788 49.455 51.4943 49.7259 51.2448 50.0429C51.1929 49.9676 51.1251 49.9225 51.0415 49.9074C50.9096 49.695 50.8869 49.4692 50.9737 49.2301C51.3717 48.7021 51.7558 48.1602 52.126 47.6044C52.0808 47.5593 52.0356 47.514 51.9904 47.4689C51.8149 47.5499 51.6342 47.6177 51.4482 47.6721C51.0678 48.1426 50.6384 48.5717 50.1603 48.9591C49.7207 48.4385 49.2009 48.0772 48.6013 47.8753C48.6722 48.333 48.8529 48.7394 49.1436 49.0946C49.1234 49.6124 48.8522 49.9284 48.3302 50.0429C48.2205 50.2557 48.1752 50.4816 48.1946 50.7203C47.8454 50.9817 47.3484 51.1172 46.7034 51.1267C45.8606 50.8875 45.5894 50.3456 45.89 49.501C44.6904 49.5452 43.5154 49.5001 42.3653 49.3655C41.8546 49.1901 41.3124 49.0999 40.7385 49.0946C40.7755 48.7616 40.64 48.5358 40.3318 48.4172C40.2117 48.529 40.1666 48.6645 40.1963 48.8236C39.8693 48.8583 39.6433 48.7229 39.5184 48.4172C39.1679 48.2845 38.8063 48.2393 38.4339 48.2817C37.2941 47.6082 36.074 47.4276 34.7737 47.7399C34.2901 47.7729 33.9287 47.9986 33.6891 48.4172C33.3778 48.6603 33.0841 48.9312 32.808 49.2301C32.7756 49.4046 32.8434 49.54 33.0113 49.6365C33.796 49.814 34.6094 49.9043 35.4515 49.9074C35.6439 50.0363 35.8697 50.0814 36.1293 50.0429C36.7273 50.2637 37.36 50.3992 38.0272 50.4493C38.4031 50.6061 38.8098 50.6964 39.2473 50.7203C39.7768 50.9154 40.3417 51.0056 40.9419 50.9912C42.3233 50.8306 43.7016 50.8306 45.0766 50.9912C45.1178 51.0793 45.163 51.1696 45.2122 51.2622C44.9603 51.5364 44.7343 51.8299 44.5343 52.1428C43.8206 52.4758 43.0975 52.7692 42.3653 53.0233C42.2844 52.9368 42.1714 52.8917 42.0264 52.8879C40.5275 53.1432 39.0136 53.2336 37.485 53.1588C36.6633 53.0139 35.9403 52.6752 35.3159 52.1428C35.1406 52.0764 34.9598 52.0538 34.7737 52.075C34.8012 51.7854 34.9367 51.5595 35.1804 51.3977C34.7562 51.1915 34.3042 51.0786 33.8247 51.059C33.5034 50.8984 33.1871 50.7405 32.8758 50.5848C32.7853 50.6299 32.695 50.6752 32.6046 50.7203C33.8468 52.1326 35.3832 53.1034 37.2138 53.633C38.1732 53.7833 39.1222 53.9866 40.0607 54.2426C40.1898 54.5152 40.4157 54.6507 40.7385 54.649C41.7946 54.523 42.7887 54.2068 43.721 53.7007C44.5982 53.1164 45.4341 52.4843 46.2289 51.8041C46.5181 52.1228 46.8796 52.2583 47.3134 52.2105C47.786 52.1195 48.2152 51.9389 48.6013 51.6686C48.8429 51.8339 49.114 51.9241 49.4147 51.9395C49.4147 52.075 49.4147 52.2105 49.4147 52.346C49.1758 52.3653 48.9498 52.3201 48.7369 52.2105C48.4016 52.427 48.4016 52.6302 48.7369 52.8201C48.6239 53.0233 48.4657 53.1814 48.2624 53.2943C48.1527 54.7005 48.1754 56.1005 48.3302 57.494C48.285 57.5391 48.2397 57.5843 48.1946 57.6295C47.5412 57.0433 46.7731 56.7723 45.89 56.8166C45.7299 56.6043 45.504 56.4913 45.2122 56.4779C44.5994 56.3676 44.0119 56.3903 43.4498 56.5457C42.5657 56.7307 42.1815 57.2726 42.2975 58.1713C42.9753 60.0119 44.2632 61.1859 46.1611 61.6937C46.2537 61.9207 46.4346 62.0111 46.7034 61.9646C46.851 62.1837 47.077 62.2965 47.3812 62.3033C48.9883 62.3328 50.5926 62.4006 52.1938 62.5065C52.5007 62.2334 52.93 62.0077 53.4816 61.8291C53.5721 61.8518 53.6623 61.8743 53.7528 61.8969C53.6165 62.101 53.4358 62.259 53.2105 62.371C53.3912 62.4614 53.5721 62.5516 53.7528 62.642C53.142 62.9058 52.5094 63.0863 51.8549 63.1839C51.8549 63.3194 51.8549 63.4548 51.8549 63.5903C51.3679 63.9428 50.8482 64.2589 50.2959 64.5386C49.7723 64.6297 49.2978 64.8103 48.8724 65.0805C48.1504 65.1831 47.4951 65.0476 46.9067 64.6741C46.6222 64.9895 46.3286 65.012 46.0256 64.7418C45.5759 64.6744 45.1241 64.6517 44.6699 64.6741C42.13 64.105 39.9156 62.931 38.0272 61.1518C37.5824 60.5748 37.1757 59.9876 36.8071 59.3906C36.5494 58.8367 36.685 58.4302 37.2138 58.1713C37.3494 58.1713 37.485 58.1713 37.6205 58.1713C37.6768 58.6538 37.8124 58.6311 38.0272 58.1036C38.4459 58.0252 38.8074 57.8444 39.1117 57.5617C39.817 57.468 40.4948 57.2874 41.1452 57.0198C41.1837 56.7548 41.1837 56.4613 41.1452 56.1392C40.5955 56.0953 40.0532 56.1405 39.5184 56.2747C39.4177 56.3671 39.3274 56.4575 39.2473 56.5457C38.611 56.7976 37.9783 57.0912 37.3494 57.4262C36.87 57.928 36.3731 58.4022 35.8582 58.8487C35.635 59.0717 35.4092 59.2974 35.1804 59.5261C35.0685 59.6461 34.933 59.6912 34.7737 59.6616C34.8082 59.3207 34.9213 59.0045 35.1126 58.7132C35.3781 58.5442 35.5815 58.3183 35.7226 58.0359C35.6548 57.9908 35.5871 57.9455 35.5193 57.9004C34.7947 58.2188 34.2976 58.7607 34.0281 59.5261C33.9893 58.8731 34.1475 58.2635 34.5025 57.6972C34.4849 57.5537 34.4171 57.4409 34.2992 57.3585C34.0567 57.7976 33.8533 58.2491 33.6891 58.7132C33.6891 58.8487 33.6891 58.9842 33.6891 59.1197C33.4461 59.3806 33.3105 59.6967 33.2824 60.068C33.1469 60.068 33.0113 60.068 32.8758 60.068C32.7308 59.1157 32.7082 58.1674 32.808 57.223C32.4071 57.7969 32.2038 58.4292 32.1979 59.1197C32.0624 59.1197 31.9268 59.1197 31.7912 59.1197C31.578 60.8051 32.0298 62.2728 33.1469 63.5226C33.4257 63.8045 33.6516 63.7819 33.8247 63.4548C34.0198 63.172 34.1102 62.8559 34.0958 62.5065C34.2002 62.2628 34.3809 62.0822 34.6381 61.9646C35.1955 63.4402 35.8281 64.8853 36.536 66.2998C36.5192 66.382 36.4741 66.4271 36.4004 66.4353C35.67 66.2803 34.9471 66.3254 34.2314 66.5707C33.0582 66.6886 31.8834 66.7111 30.7067 66.6385C30.4482 66.4865 30.1771 66.3736 29.8933 66.2998C29.7056 66.1543 29.5475 65.9737 29.4188 65.7579C27.1191 60.0066 26.2606 54.0458 26.8431 47.8753C27.4464 45.0117 28.2598 42.212 29.2833 39.4759C30.2434 38.0409 31.1019 36.5507 31.859 35.0053C32.9 33.5823 34.0523 32.2727 35.3159 31.0766C36.4628 29.9855 37.6829 28.9919 38.9762 28.0961C40.6337 27.0194 42.3961 26.1162 44.2632 25.3867C44.5752 25.508 44.8914 25.5306 45.2122 25.4544C45.534 25.1782 45.8051 24.8621 46.0256 24.5061C46.2368 24.4776 46.4175 24.4099 46.5678 24.3029C47.111 24.2346 47.6533 24.2121 48.1946 24.2351C48.2995 24.5609 48.3673 24.8996 48.398 25.2512C48.5987 25.1196 48.7118 24.939 48.7369 24.7093Z" fill="#DD6E53"/>
<path fill-rule="evenodd" clip-rule="evenodd" d="M38.9762 28.0961C37.6829 28.9918 36.4628 29.9854 35.3159 31.0765C35.4436 30.6809 35.6245 30.3197 35.8582 29.9927C36.0389 29.9927 36.2197 29.9927 36.4004 29.9927C36.4004 29.8572 36.4004 29.7218 36.4004 29.5863C36.953 29.4752 37.3146 29.1591 37.485 28.638C37.9619 28.4231 38.459 28.2425 38.9762 28.0961Z" fill="#4F190D"/>
<path fill-rule="evenodd" clip-rule="evenodd" d="M47.7878 32.8376C48.2396 32.8376 48.6916 32.8376 49.1435 32.8376C49.1927 33.1643 49.0571 33.3675 48.7368 33.4473C47.7302 33.61 46.736 33.8132 45.7543 34.0569C45.7268 33.8009 45.8171 33.5977 46.0255 33.4473C46.6016 33.1568 47.189 32.9536 47.7878 32.8376Z" fill="#68170E"/>
<path fill-rule="evenodd" clip-rule="evenodd" d="M49.9571 33.9215C50.0927 33.9215 50.2283 33.9215 50.3638 33.9215C50.2326 34.2662 50.0066 34.5597 49.686 34.8021C48.9929 35.0355 48.315 35.3065 47.6525 35.6149C46.7754 36.2613 45.8716 36.8709 44.9412 37.4438C44.8961 37.4212 44.8508 37.3987 44.8057 37.3761C45.7488 36.2051 46.8786 35.2567 48.1948 34.5311C48.8196 34.3977 49.4071 34.1945 49.9571 33.9215Z" fill="#64160C"/>
<path fill-rule="evenodd" clip-rule="evenodd" d="M54.4307 35.1407C54.7055 35.1187 54.9766 35.1414 55.2441 35.2084C55.4248 35.389 55.4248 35.5697 55.2441 35.7503C53.0268 36.218 50.8577 36.8502 48.737 37.6469C47.5796 38.112 46.4951 38.6764 45.4834 39.3404C45.4892 38.9898 45.6248 38.6963 45.8901 38.4598C46.4786 38.0301 47.1113 37.6688 47.788 37.376C49.9997 36.5866 52.2139 35.8415 54.4307 35.1407Z" fill="#5F130B"/>
<path fill-rule="evenodd" clip-rule="evenodd" d="M62.8358 41.2371C61.7862 41.4659 60.7468 41.7819 59.7178 42.1854C59.7178 42.0499 59.7178 41.9144 59.7178 41.779C59.9835 41.6925 60.232 41.6925 60.4634 41.779C60.6708 41.5866 60.9193 41.4511 61.209 41.3725C61.7438 41.2383 62.2861 41.1932 62.8358 41.2371Z" fill="#DD6E53"/>
<path fill-rule="evenodd" clip-rule="evenodd" d="M52.6681 41.237C53.5719 41.237 54.4756 41.237 55.3794 41.237C55.4352 41.5721 55.2997 41.7526 54.9727 41.7789C53.4787 41.8239 51.9875 41.7788 50.499 41.6435C51.1344 41.5702 51.5864 41.2541 51.8547 40.6951C52.0807 40.5145 52.3065 40.5145 52.5325 40.6951C51.87 40.9054 51.9151 41.086 52.6681 41.237Z" fill="#4A0F0B"/>
<path fill-rule="evenodd" clip-rule="evenodd" d="M52.6683 41.237C51.9154 41.086 51.8702 40.9054 52.5327 40.6951C52.3068 40.5146 52.0809 40.5146 51.8549 40.6951C51.5866 41.2541 51.1347 41.5702 50.4993 41.6435C51.9878 41.7788 53.479 41.8239 54.9729 41.7789C54.8695 41.883 54.7339 41.9507 54.5662 41.9821C53.3461 42.0273 52.1261 42.0725 50.906 42.1176C50.5671 42.2305 50.2281 42.3435 49.8892 42.4563C47.8918 43.7597 45.9261 45.1144 43.9921 46.5205C43.8049 46.4528 43.7146 46.3173 43.721 46.1141C43.8185 45.8123 43.9992 45.5639 44.2633 45.369C45.6695 44.5306 46.98 43.5596 48.1947 42.4563C48.1663 42.3769 48.1211 42.3092 48.0591 42.2531C47.3844 42.1031 46.7066 41.9677 46.0256 41.8467C45.8345 41.7968 45.6989 41.684 45.6189 41.508C46.2104 41.3097 46.8204 41.2193 47.4491 41.237C48.4653 41.3403 49.482 41.3629 50.4993 41.3048C52.4777 40.0457 54.6016 39.0749 56.8708 38.3921C57.017 38.6597 56.9718 38.908 56.7353 39.1372C55.5583 39.5894 54.3835 40.0409 53.2106 40.4919C52.8425 40.6105 52.6618 40.8588 52.6683 41.237Z" fill="#52120C"/>
<path fill-rule="evenodd" clip-rule="evenodd" d="M55.3794 24.8447C56.035 24.8764 56.6677 25.0119 57.2773 25.2511C57.5356 25.1746 57.7614 25.0391 57.9551 24.8447C58.0477 24.8939 58.1381 24.939 58.2263 24.9802C58.2112 25.0638 58.1661 25.1316 58.0907 25.1834C60.3247 26.1408 62.3581 27.4052 64.1911 28.9767C70.2052 34.6524 73.6395 41.6293 74.4941 49.9074C74.4724 50.1376 74.4949 50.3634 74.5618 50.5848C74.6379 50.6555 74.7283 50.7006 74.833 50.7203C75.6324 50.3095 76.4233 49.8805 77.2054 49.4333C78.6196 48.7585 80.0657 48.6681 81.5434 49.1623C82.2599 49.3853 82.9377 49.6789 83.5769 50.0429C84.9285 51.2708 85.4933 52.8061 85.2715 54.649C85.1092 55.5637 84.9059 56.4669 84.6614 57.3585C84.571 56.9069 84.4807 56.4553 84.3903 56.0037C84.3594 54.3359 83.9752 52.7553 83.238 51.2622C83.0184 51.0263 82.815 50.7778 82.628 50.517C82.0309 50.2516 81.4434 50.0033 80.8656 49.7719C80.4784 49.5679 80.0491 49.4777 79.5778 49.501C79.2577 49.5015 78.9641 49.5466 78.6966 49.6365C78.3552 49.8294 78.039 50.0552 77.7476 50.3138C76.8888 50.4805 76.0529 50.7063 75.2397 50.9912C74.5839 51.7947 74.4484 52.6979 74.833 53.7007C74.9239 53.8026 75.0369 53.8478 75.1719 53.8362C74.9424 54.2987 74.7842 54.7954 74.6974 55.3264C74.6863 56.2806 74.6637 57.229 74.6296 58.1713C74.5353 57.7573 74.4222 57.3509 74.2907 56.9521C74.3002 57.4251 74.1873 57.8316 73.9518 58.1713C74.047 57.2924 74.1374 56.4118 74.2229 55.5296C73.9519 52.7984 73.7033 50.0663 73.4773 47.3334C72.1332 41.7837 69.7155 36.7712 66.2246 32.2958C63.2908 28.7996 59.6757 26.316 55.3794 24.8447Z" fill="#3C170C"/>
<path fill-rule="evenodd" clip-rule="evenodd" d="M68.3936 42.5918C68.4915 42.6484 68.5593 42.7387 68.597 42.8627C68.6646 43.4934 68.6872 44.1255 68.6647 44.7594C68.0912 44.7724 67.6392 44.5467 67.3091 44.082C67.4952 44.0607 67.6761 44.0834 67.8513 44.1497C67.9401 44.3512 68.0757 44.5092 68.258 44.6239C68.5716 43.9693 68.6169 43.2919 68.3936 42.5918Z" fill="#49120C"/>
<path fill-rule="evenodd" clip-rule="evenodd" d="M62.5643 46.5206C61.1724 46.2263 59.7716 46.1811 58.3618 46.3851C58.5122 46.2781 58.6929 46.2104 58.9041 46.1819C60.0337 46.0915 61.1635 46.0915 62.2932 46.1819C62.4126 46.2778 62.5029 46.3908 62.5643 46.5206Z" fill="#DD6E53"/>
<path fill-rule="evenodd" clip-rule="evenodd" d="M62.5644 46.5205C63.8479 47.059 64.684 48.0073 65.0724 49.3655C65.2524 50.8937 65.0942 52.3839 64.5979 53.8361C63.571 54.4606 62.5769 55.1155 61.6155 55.8005C61.1868 55.882 60.7801 55.8143 60.3954 55.5973C60.0375 55.6852 59.6986 55.8207 59.3786 56.0037C58.7198 55.9117 58.1098 55.6859 57.5485 55.3263C57.1003 54.8769 56.6034 54.493 56.0573 54.1748C55.8473 54.0103 55.6892 53.8071 55.5828 53.5651C55.5369 53.1072 55.4691 52.6557 55.3795 52.2104C55.2055 51.3063 55.2055 50.403 55.3795 49.5009C55.515 49.5009 55.6506 49.5009 55.7862 49.5009C55.7437 49.0211 55.789 48.5695 55.9217 48.1462C56.0643 48.1664 56.1999 48.1439 56.3284 48.0785C56.8272 47.2854 57.505 46.721 58.3619 46.385C59.7716 46.181 61.1724 46.2263 62.5644 46.5205Z" fill="#320F0A"/>
<path fill-rule="evenodd" clip-rule="evenodd" d="M64.1914 50.8557C63.6894 51.6972 63.102 52.4875 62.429 53.2265C61.9269 53.6129 61.3846 53.929 60.8022 54.1748C60.1696 54.2652 59.537 54.2652 58.9043 54.1748C58.2853 53.7123 57.6528 53.2834 57.0064 52.8878C55.9486 50.5733 56.4909 48.7444 58.6332 47.4011C60.5872 46.8517 62.2367 47.3258 63.5813 48.8236C63.9345 49.4536 64.1378 50.131 64.1914 50.8557Z" fill="white"/>
<path fill-rule="evenodd" clip-rule="evenodd" d="M34.7734 47.7398C36.0738 47.4275 37.2939 47.6081 38.4337 48.2817C37.7422 48.1946 37.0644 48.0366 36.4002 47.8076C35.8599 47.7399 35.3176 47.7173 34.7734 47.7398Z" fill="#DD6E53"/>
<path fill-rule="evenodd" clip-rule="evenodd" d="M68.3937 42.5917C68.6169 43.2919 68.5717 43.9692 68.2581 44.6239C68.0758 44.5091 67.9402 44.3511 67.8514 44.1497C67.6761 44.0833 67.4953 44.0607 67.3091 44.082C66.8452 43.8389 66.3708 43.6131 65.8857 43.4046C64.6908 43.2604 63.4934 43.2378 62.2932 43.3369C61.2899 43.8141 60.2507 44.1979 59.1752 44.4884C58.5333 44.8994 57.8555 45.2381 57.1418 45.5044C56.4738 46.155 55.7509 46.742 54.9727 47.2656C54.2972 47.9607 53.7097 48.7058 53.2104 49.5009C52.8621 50.1432 52.3876 50.6851 51.7869 51.1266C51.1978 50.8547 50.6104 50.5838 50.0246 50.3138C49.9117 50.3364 49.7986 50.3589 49.6857 50.3815C49.2764 50.7917 48.915 51.2206 48.6012 51.6685C48.2151 51.9388 47.7859 52.1194 47.3133 52.2104C46.8795 52.2582 46.5179 52.1227 46.2288 51.804C45.434 52.4842 44.5981 53.1163 43.7208 53.7006C42.7885 54.2067 41.7944 54.5229 40.7384 54.6489C40.4156 54.6506 38.929 54.2725 38.7999 54C37.9999 54 38.1731 53.7833 37.2137 53.6329C35.383 53.1033 33.8467 52.1325 32.6045 50.7202C32.6949 50.6751 32.7852 50.6298 32.8756 50.5847C33.187 50.7404 33.5033 50.8983 33.8246 51.0589C34.3041 51.0785 34.756 51.1914 35.1802 51.3976C34.9366 51.5594 34.8011 51.7853 34.7735 52.0749C34.9597 52.0537 35.1405 52.0763 35.3158 52.1427C35.9402 52.6751 36.6632 53.0138 37.4848 53.1587C38.1975 53.3585 38.9431 53.4489 39.7217 53.4297C40.1961 53.407 40.6706 53.3846 41.1451 53.3619C41.592 53.3343 41.9987 53.2214 42.3652 53.0232C43.0974 52.7691 43.8205 52.4757 44.5342 52.1427C44.7342 51.8299 44.9602 51.5363 45.212 51.2621C45.1628 51.1696 45.1177 51.0792 45.0765 50.9911C45.0198 50.8933 44.9295 50.8256 44.8053 50.7879C42.9531 50.7202 41.1005 50.6976 39.2472 50.7202C38.8097 50.6963 38.403 50.606 38.0271 50.4492C37.4358 50.1994 36.8031 50.064 36.1292 50.0428C35.8696 50.0813 35.6437 50.0362 35.4514 49.9073C34.6686 49.7114 33.8552 49.6212 33.0112 49.6364C32.8432 49.5399 32.7754 49.4045 32.8078 49.23C33.084 48.9311 33.3776 48.6602 33.689 48.4171C34.3022 48.2529 34.9349 48.1175 35.5869 48.0107C36.5092 48.2512 37.4581 48.3866 38.4338 48.4171C39.2639 48.7764 40.1224 49.07 41.0095 49.2977C41.4592 49.3652 41.911 49.3878 42.3652 49.3654C43.5153 49.5 44.6903 49.5451 45.8899 49.5009C45.5893 50.3455 45.8604 50.8874 46.7033 51.1266C46.9683 51.374 47.2846 51.4417 47.6522 51.3298C48.1304 51.0098 48.537 50.6259 48.8723 50.1783C49.616 49.9611 49.7969 49.5322 49.4146 48.8913C49.4597 48.8236 49.505 48.7558 49.5501 48.6881C49.8137 49.0478 50.1751 49.2285 50.6346 49.23C50.6346 49.4558 50.6346 49.6815 50.6346 49.9073C50.7702 49.9073 50.9058 49.9073 51.0413 49.9073C51.125 49.9224 51.1928 49.9675 51.2447 50.0428C51.4941 49.7258 51.7879 49.4549 52.1259 49.23C53.1373 47.6436 54.3574 46.2211 55.7861 44.9625C57.2007 44.167 58.5112 43.2413 59.7175 42.1853C60.7466 41.7819 61.786 41.4658 62.8355 41.237C64.8442 40.5445 66.6743 40.8605 68.3259 42.1853C68.3914 42.3138 68.4139 42.4492 68.3937 42.5917Z" fill="#310C09"/>
<path fill-rule="evenodd" clip-rule="evenodd" d="M34.7735 47.7399C35.3176 47.7174 35.8599 47.74 36.4003 47.8076C37.0644 48.0367 37.7422 48.1946 38.4337 48.2818C38.4337 48.3269 38.4337 48.3721 38.4337 48.4172C37.4581 48.3867 36.5091 48.2513 35.5869 48.0108C34.9348 48.1176 34.3021 48.253 33.689 48.4172C33.9285 47.9986 34.2899 47.7729 34.7735 47.7399Z" fill="#370A07"/>
<path fill-rule="evenodd" clip-rule="evenodd" d="M38.4339 48.4172C38.4339 48.3721 38 47.6452 38 47.6C38.3724 47.5576 39.1678 47.4845 39.5184 47.6172C39.6432 47.9229 39.8692 48.8583 40.1962 48.8237C40.1665 48.6645 40.2117 48.529 40.3318 48.4172C40.6399 48.5358 40.7755 48.7616 40.7385 49.0946C41.3123 49.0999 41.8546 49.1901 42.3652 49.3655C41.9111 49.3879 41.4593 49.3653 41.0096 49.2978C40.1225 49.0701 39.2639 48.7765 38.4339 48.4172Z" fill="#DD6E53"/>
<path fill-rule="evenodd" clip-rule="evenodd" d="M51.0412 49.9074C50.9057 49.9074 50.7701 49.9074 50.6346 49.9074C50.6346 49.6816 50.6346 49.4559 50.6346 49.23C50.175 49.2285 49.8136 49.0478 49.55 48.6881C49.5049 48.7559 49.4596 48.8236 49.4145 48.8913C49.7968 49.5323 49.6159 49.9612 48.8722 50.1784C49.0498 49.9551 49.2305 49.7294 49.4145 49.501C49.3545 49.3331 49.2641 49.1977 49.1433 49.0946C48.8527 48.7393 48.672 48.3329 48.6011 47.8753C49.2007 48.0772 49.7204 48.4385 50.1601 48.9591C50.6382 48.5716 51.0675 48.1426 51.4479 47.6721C51.6339 47.6176 51.8146 47.5499 51.9902 47.4689C52.0353 47.514 52.0806 47.5592 52.1258 47.6043C51.7555 48.1602 51.3715 48.7021 50.9735 49.23C50.8867 49.4691 50.9093 49.695 51.0412 49.9074Z" fill="#380B07"/>
<path fill-rule="evenodd" clip-rule="evenodd" d="M78.6968 49.6365C78.9642 49.5467 79.2579 49.5016 79.578 49.501C80.0493 49.4777 80.4786 49.5679 80.8658 49.772C80.1477 49.667 79.4248 49.6219 78.6968 49.6365Z" fill="#773325"/>
<path fill-rule="evenodd" clip-rule="evenodd" d="M33.0112 49.6364C33.8553 49.6212 34.6686 49.7115 35.4514 49.9074C34.6093 49.9042 33.7959 49.8139 33.0112 49.6364Z" fill="#DD6E53"/>
<path fill-rule="evenodd" clip-rule="evenodd" d="M49.1433 49.0946C49.2641 49.1977 49.3545 49.3332 49.4144 49.501C49.2305 49.7294 49.0498 49.9551 48.8722 50.1784C48.5369 50.626 48.1302 51.0099 47.6521 51.3299C47.2844 51.4418 46.9682 51.3741 46.7031 51.1267C47.3481 51.1172 47.8451 50.9818 48.1943 50.7203C48.175 50.4816 48.2202 50.2558 48.3299 50.0429C48.852 49.9284 49.1231 49.6124 49.1433 49.0946Z" fill="#DD6E53"/>
<path fill-rule="evenodd" clip-rule="evenodd" d="M36.1294 50.0428C36.8033 50.064 37.436 50.1995 38.0273 50.4493C37.3601 50.3991 36.7274 50.2637 36.1294 50.0428Z" fill="#DD6E53"/>
<path fill-rule="evenodd" clip-rule="evenodd" d="M59.1755 49.501C59.5482 49.4704 59.9097 49.5155 60.26 49.6365C60.3052 49.7719 60.3505 49.9074 60.3956 50.0429C60.3041 50.4057 60.2137 50.7669 60.1245 51.1267C60.5687 51.0882 60.9979 51.1333 61.4123 51.2621C61.5338 51.7081 61.3756 52.0242 60.9379 52.2105C59.1906 52.7436 58.3998 52.1113 58.5655 50.3138C58.6982 49.9795 58.9015 49.7085 59.1755 49.501Z" fill="#2B1C0C"/>
<path fill-rule="evenodd" clip-rule="evenodd" d="M39.2471 50.7203C41.1004 50.6977 42.953 50.7203 44.8052 50.788C44.9294 50.8257 45.0197 50.8934 45.0764 50.9912C43.7013 50.8306 42.323 50.8306 40.9416 50.9912C40.3415 51.0056 39.7766 50.9154 39.2471 50.7203Z" fill="#4D1814"/>
<path fill-rule="evenodd" clip-rule="evenodd" d="M53.2106 49.501C53.1362 49.8262 53.0233 50.1424 52.8717 50.4493C52.546 50.6228 52.2973 50.8712 52.1261 51.1944C51.8009 51.2907 51.4846 51.2681 51.1772 51.1267C50.9965 51.2621 50.9965 51.3976 51.1772 51.5331C51.3527 51.6141 51.5334 51.6818 51.7194 51.7363C51.6517 51.804 51.5839 51.8718 51.5161 51.9395C51.0205 51.7405 50.5008 51.605 49.9571 51.5331C50.1095 51.3415 50.245 51.1383 50.3638 50.9235C50.2814 50.8056 50.1684 50.7379 50.0249 50.7202C49.7341 51.0108 49.4403 51.3044 49.1437 51.6008C49.7302 51.7784 50.2724 52.0269 50.7705 52.3459C49.7372 52.1965 48.9916 52.6029 48.5337 53.5652C48.4659 55.0547 48.4432 56.5449 48.4659 58.0358C47.6241 57.5927 46.7656 57.1863 45.8901 56.8166C46.7732 56.7723 47.5413 57.0432 48.1947 57.6294C48.2399 57.5843 48.2852 57.5391 48.3303 57.4939C48.1755 56.1005 48.1529 54.7005 48.2625 53.2942C48.4659 53.1814 48.6241 53.0233 48.737 52.8201C48.4018 52.6302 48.4018 52.4269 48.737 52.2105C48.95 52.3201 49.176 52.3653 49.4148 52.3459C49.4148 52.2105 49.4148 52.075 49.4148 51.9395C49.1141 51.9241 48.843 51.8338 48.6014 51.6686C48.9153 51.2207 49.2767 50.7918 49.686 50.3816C49.7989 50.3589 49.9119 50.3364 50.0249 50.3138C50.6106 50.5838 51.1981 50.8548 51.7872 51.1267C52.3879 50.6852 52.8624 50.1433 53.2106 49.501Z" fill="#DD6E53"/>
<path fill-rule="evenodd" clip-rule="evenodd" d="M55.9218 48.1462C55.7891 48.5696 55.7438 49.0211 55.7863 49.501C55.6507 49.501 55.5151 49.501 55.3796 49.501C55.2056 50.4031 55.2056 51.3063 55.3796 52.2104C54.9919 51.6466 54.8789 51.0145 55.0407 50.3138C55.2753 49.5352 55.5239 48.7676 55.7863 48.0107C55.8686 48.0275 55.9137 48.0727 55.9218 48.1462Z" fill="#440C07"/>
<path fill-rule="evenodd" clip-rule="evenodd" d="M36.6714 51.6685C38.8423 51.6234 41.0114 51.6686 43.1785 51.804C43.0985 51.98 42.9629 52.0928 42.7718 52.1427C42.5007 52.1878 42.2295 52.233 41.9584 52.2781C40.1519 52.2772 38.3442 52.2547 36.5358 52.2104C36.5267 52.0127 36.5719 51.8322 36.6714 51.6685Z" fill="#741D14"/>
<path fill-rule="evenodd" clip-rule="evenodd" d="M38.0273 51.804C39.4874 51.7426 40.9335 51.8104 42.3654 52.0072C41.6425 52.0298 40.9194 52.0523 40.1964 52.0749C39.4222 52.0743 38.6992 51.9839 38.0273 51.804Z" fill="#5C0D09"/>
<path fill-rule="evenodd" clip-rule="evenodd" d="M42.3652 53.0233C41.9988 53.2215 41.5921 53.3343 41.1451 53.362C40.6706 53.3846 40.1962 53.4071 39.7217 53.4297C38.9431 53.449 38.1975 53.3586 37.4849 53.1588C39.0135 53.2335 40.5273 53.1432 42.0263 52.8878C42.1713 52.8916 42.2843 52.9367 42.3652 53.0233Z" fill="#DD6E53"/>
<path fill-rule="evenodd" clip-rule="evenodd" d="M50.7703 52.3459C51.0461 52.6763 51.3399 52.9924 51.6515 53.2942C51.6967 54.649 51.7419 56.0037 51.7871 57.3585C51.8512 57.6672 51.9868 57.9382 52.1938 58.1713C52.3354 58.053 52.4484 57.9176 52.5327 57.7649C53.7265 56.5834 55.1724 56.0866 56.8708 56.2747C57.11 56.4049 57.3812 56.4501 57.6842 56.4101C57.6842 56.636 57.6842 56.8617 57.6842 57.0875C57.7244 57.6851 57.5664 58.227 57.2097 58.7132C56.6632 59.4171 56.0532 60.0494 55.3796 60.6098C54.3761 61.0665 53.382 61.5181 52.3971 61.9646C50.8192 62.0849 49.2375 62.13 47.6524 62.1C47.1905 61.8868 46.6935 61.7513 46.1611 61.6936C44.2632 61.1859 42.9754 60.0119 42.2975 58.1713C42.1815 57.2726 42.5657 56.7307 43.4498 56.5456C44.2815 56.5019 45.0949 56.5922 45.89 56.8166C46.7655 57.1863 47.624 57.5927 48.4657 58.0358C48.4431 56.5449 48.4657 55.0547 48.5335 53.5652C48.9915 52.6029 49.7371 52.1965 50.7703 52.3459Z" fill="#39160D"/>
<path fill-rule="evenodd" clip-rule="evenodd" d="M78.6965 49.6365C79.4245 49.6218 80.1475 49.667 80.8655 49.772C81.4433 50.0033 82.0309 50.2517 82.6279 50.5171C82.815 50.7778 83.0183 51.0263 83.2379 51.2622C83.9751 52.7554 84.3593 54.3359 84.3902 56.0038C84.243 57.2585 83.9494 58.4778 83.5091 59.6615C83.2373 60.0901 82.9435 60.4965 82.6279 60.8808C81.7745 61.262 80.9611 61.7136 80.1877 62.2356C80.1179 61.784 80.1857 61.3325 80.3911 60.8808C80.4586 60.4768 80.4812 60.0704 80.4589 59.6615C80.0488 59.6251 79.6872 59.738 79.3743 60.0002C78.7369 60.0235 78.1044 60.0913 77.4764 60.2034C77.2796 60.3985 77.144 60.6242 77.0697 60.8808C76.8759 60.8701 76.695 60.9152 76.5275 61.0163C76.4823 60.9486 76.437 60.8808 76.3919 60.8131C76.9503 59.9822 77.5151 59.1467 78.0865 58.3068C78.1769 57.9907 78.1769 57.6746 78.0865 57.3585C77.5561 56.7139 76.9008 56.2624 76.1208 56.0038C76.1323 55.6747 76.2679 55.4037 76.5275 55.1909C77.1897 54.5521 77.9127 53.9876 78.6965 53.4975C79.5328 53.1649 80.3915 53.0972 81.2722 53.2943C81.656 53.79 82.0401 54.2868 82.4245 54.7845C82.6242 54.7299 82.8049 54.6395 82.9668 54.5135C82.9981 53.3117 82.5236 52.3634 81.5434 51.6686C81.178 51.3451 80.7487 51.2096 80.2555 51.2622C78.1473 51.3558 76.4528 52.2139 75.1718 53.8362C75.0368 53.8478 74.9239 53.8026 74.8329 53.7007C74.4483 52.6979 74.5839 51.7947 75.2396 50.9912C76.0529 50.7063 76.8887 50.4805 77.7476 50.3138C78.0389 50.0552 78.3552 49.8294 78.6965 49.6365Z" fill="#DD6E53"/>
<path fill-rule="evenodd" clip-rule="evenodd" d="M77.0701 60.8808C77.0701 60.9259 77.0701 60.9711 77.0701 61.0162C76.0624 61.6806 75.0006 62.2676 73.8843 62.7774C73.7664 62.695 73.6986 62.5822 73.681 62.4387C73.8681 61.8261 74.1392 61.2616 74.4944 60.7453C74.4717 60.6549 74.4492 60.5647 74.4266 60.4743C74.1437 60.5959 73.8499 60.6862 73.5454 60.7453C73.6383 60.486 73.7061 60.2151 73.7488 59.9325C73.9343 60.4517 74.0474 60.4065 74.0877 59.797C73.9977 59.2583 73.9525 58.7164 73.9521 58.1713C74.1876 57.8315 74.3005 57.4251 74.291 56.952C74.4225 57.3509 74.5356 57.7573 74.6299 58.1713C74.664 57.2289 74.6866 56.2806 74.6977 55.3263C74.7845 54.7954 74.9427 54.2986 75.1722 53.8361C76.4531 52.2138 78.1477 51.3557 80.2559 51.2621C80.7491 51.2096 81.1784 51.345 81.5437 51.6685C82.524 52.3634 82.9985 53.3117 82.9672 54.5135C82.8053 54.6395 82.6246 54.7298 82.4249 54.7844C82.0405 54.2867 81.6564 53.7899 81.2726 53.2942C80.3919 53.0971 79.5332 53.1649 78.6969 53.4974C77.913 53.9876 77.1901 54.5521 76.5278 55.1909C76.2682 55.4037 76.1327 55.6746 76.1211 56.0037C76.9012 56.2623 77.5565 56.7139 78.0868 57.3584C78.1773 57.6745 78.1773 57.9907 78.0868 58.3068C77.5154 59.1467 76.9507 59.9822 76.3923 60.813C76.4374 60.8808 76.4827 60.9485 76.5278 61.0162C76.6954 60.9152 76.8762 60.8701 77.0701 60.8808Z" fill="#39160D"/>
<path fill-rule="evenodd" clip-rule="evenodd" d="M64.1913 50.8557C63.9626 53.3646 62.5844 54.7193 60.0566 54.9199C58.6566 54.7975 57.6398 54.1201 57.0063 52.8878C57.6527 53.2834 58.2853 53.7123 58.9043 54.1748C59.5369 54.2652 60.1695 54.2652 60.8022 54.1748C61.3846 53.9289 61.9268 53.6129 62.4289 53.2265C63.1019 52.4875 63.6893 51.6971 64.1913 50.8557Z" fill="#DEDEDE"/>
<path fill-rule="evenodd" clip-rule="evenodd" d="M43.4497 56.5457C44.0118 56.3903 44.5993 56.3677 45.2121 56.4779C45.5039 56.4914 45.7298 56.6043 45.8899 56.8166C45.0948 56.5923 44.2814 56.5019 43.4497 56.5457Z" fill="#160504"/>
<path fill-rule="evenodd" clip-rule="evenodd" d="M50.7705 52.3459C51.2512 52.5318 51.6354 52.8479 51.9228 53.2943C51.968 54.7394 52.0132 56.1843 52.0584 57.6294C52.1954 57.7428 52.3536 57.7879 52.5329 57.7649C52.4485 57.9176 52.3356 58.0531 52.1939 58.1713C51.9869 57.9382 51.8514 57.6672 51.7872 57.3585C51.7421 56.0037 51.6968 54.649 51.6517 53.2943C51.34 52.9924 51.0462 52.6764 50.7705 52.3459Z" fill="#DD6E53"/>
<path fill-rule="evenodd" clip-rule="evenodd" d="M37.2139 58.1713C37.7061 57.8039 38.2484 57.5103 38.8406 57.2907C39.4256 57.1184 40.013 56.9603 40.603 56.8165C40.8067 56.6689 40.8519 56.5108 40.7386 56.3424C40.2131 56.2645 39.7161 56.3322 39.2473 56.5456C39.3275 56.4574 39.4177 56.367 39.5185 56.2746C40.0533 56.1404 40.5955 56.0953 41.1453 56.1392C41.1838 56.4612 41.1838 56.7548 41.1453 57.0197C40.4948 57.2873 39.817 57.4679 39.1118 57.5616C38.8074 57.8444 38.4459 58.0251 38.0273 58.1035C37.8124 58.6311 37.6768 58.6537 37.6206 58.1713C37.485 58.1713 37.3494 58.1713 37.2139 58.1713Z" fill="#DD6E53"/>
<path fill-rule="evenodd" clip-rule="evenodd" d="M37.2136 58.1713C36.6847 58.4302 36.5492 58.8366 36.8069 59.3906C36.605 59.1716 36.4694 58.9007 36.4002 58.5777C36.2481 58.7308 36.0672 58.8212 35.8579 58.8487C36.3728 58.4022 36.8698 57.928 37.3491 57.4262C37.978 57.0912 38.6107 56.7976 39.247 56.5456C39.7158 56.3322 40.2128 56.2645 40.7383 56.3424C40.8516 56.5108 40.8064 56.6689 40.6027 56.8166C40.0127 56.9603 39.4253 57.1184 38.8403 57.2907C38.2481 57.5103 37.7058 57.8039 37.2136 58.1713Z" fill="#461A0D"/>
<path fill-rule="evenodd" clip-rule="evenodd" d="M59.7177 60.6098C59.3085 60.5874 58.9018 60.6101 58.4976 60.6775C57.9888 61.1097 57.4465 61.1774 56.8708 60.8807C56.7804 60.9259 56.6901 60.9711 56.5997 61.0162C56.9464 61.1135 57.0369 61.2941 56.8708 61.5581C56.4583 61.7401 56.0516 61.9208 55.6507 62.1C55.0945 62.0224 54.5522 61.8869 54.0239 61.6936C54.4295 61.4878 54.8362 61.262 55.244 61.0162C55.329 60.892 55.3743 60.7565 55.3796 60.6098C56.0532 60.0493 56.6632 59.4171 57.2097 58.7132C57.5664 58.2269 57.7244 57.6851 57.6842 57.0875C57.8061 56.9558 57.9643 56.8656 58.1587 56.8165C59.8188 57.2159 61.2196 58.0287 62.3612 59.2551C62.4516 59.3905 62.4516 59.526 62.3612 59.6615C61.5714 60.2119 60.6902 60.528 59.7177 60.6098Z" fill="#DD6E53"/>
<path fill-rule="evenodd" clip-rule="evenodd" d="M73.9517 58.1713C73.9521 58.7164 73.9973 59.2583 74.0873 59.797C74.047 60.4064 73.9339 60.4517 73.7484 59.9324C73.7057 60.215 73.6379 60.486 73.545 60.7453C73.4523 60.9735 73.2716 61.109 73.0028 61.1517C72.9205 61.1349 72.8753 61.0898 72.8672 61.0162C73.1412 60.8087 73.3445 60.5377 73.4772 60.2034C73.5809 59.4946 73.739 58.8172 73.9517 58.1713Z" fill="#46190C"/>
<path fill-rule="evenodd" clip-rule="evenodd" d="M87.7798 59.797C88.9614 59.6116 90.1362 59.6567 91.3045 59.9324C90.1316 59.8449 88.9568 59.7998 87.7798 59.797Z" fill="#4E3113"/>
<path fill-rule="evenodd" clip-rule="evenodd" d="M67.0379 60.0679C66.5386 60.6344 65.9737 61.1311 65.3434 61.5582C64.9704 61.9944 64.7671 62.491 64.7333 63.0484C65.7845 62.8189 66.7786 62.4576 67.7158 61.9646C68.2877 61.5895 68.9202 61.3636 69.6137 61.2872C69.4949 61.824 69.4046 62.3659 69.3425 62.9129C69.8292 62.8305 70.2811 62.6499 70.6982 62.371C71.2989 62.0274 71.8411 61.621 72.325 61.1517C72.5228 61.1608 72.7035 61.1157 72.8672 61.0163C72.8754 61.0898 72.9205 61.1349 73.0028 61.1517C73.2716 61.1091 73.4523 60.9736 73.5451 60.7453C73.8495 60.6862 74.1433 60.5959 74.4262 60.4744C74.4489 60.5647 74.4714 60.655 74.494 60.7453C74.1388 61.2616 73.8677 61.8261 73.6806 62.4387C73.6982 62.5822 73.766 62.6951 73.884 62.7774C75.0002 62.2676 76.0621 61.6806 77.0697 61.0163C77.5873 60.7816 78.1296 60.5784 78.6965 60.4066C79.2213 60.3646 79.5377 60.613 79.6455 61.1517C79.5551 61.513 79.4648 61.8742 79.3743 62.2355C79.4053 62.4925 79.5408 62.6731 79.781 62.7774C81.6544 61.7057 83.6427 60.938 85.7459 60.4744C87.3612 60.2339 88.9879 60.1435 90.6262 60.2034C91.2142 60.3454 91.8017 60.5034 92.3886 60.6776C92.9546 60.9828 93.4968 61.3215 94.0154 61.6936C92.2271 62.5967 90.4196 63.4773 88.5928 64.3354C87.7416 64.87 86.9282 65.457 86.1526 66.0965C85.6459 66.5126 85.2392 67.0092 84.9325 67.5867C85.3289 68.6884 86.0519 69.5013 87.1016 70.0253C88.0992 70.4664 89.1384 70.76 90.2196 70.9059C89.1653 71.8395 87.9452 72.4943 86.5593 72.8702C84.049 73.5343 81.4959 73.8278 78.8999 73.7508C76.9266 73.769 74.9609 73.6561 73.0028 73.4121C70.5775 72.6593 69.0185 71.0561 68.3258 68.6028C67.697 69.4683 67.5615 70.4167 67.9191 71.4478C68.1313 71.9761 68.4024 72.4728 68.7325 72.938C70.2792 73.7711 70.1209 74.0647 68.258 73.8186C67.5627 73.7239 66.8849 73.5658 66.2245 73.3444C65.2581 72.5372 64.3091 71.7018 63.3777 70.8381C62.8521 70.5078 62.3098 70.2143 61.7509 69.9575C61.5855 70.01 61.4951 70.1228 61.4798 70.2962C61.7049 70.951 62.0212 71.5606 62.4287 72.1251C62.4404 72.2601 62.3951 72.3729 62.2932 72.4638C61.3931 72.8396 60.4668 72.9074 59.5141 72.667C58.256 72.2313 56.9682 71.8927 55.6505 71.651C54.9851 71.0476 54.217 70.6638 53.3459 70.4994C52.8006 69.9328 52.1906 69.436 51.5157 69.0092C51.3448 69.0443 51.2092 69.1347 51.109 69.2802C50.7629 71.1195 50.6725 72.971 50.8379 74.8346C49.3224 73.6336 48.283 72.0982 47.7199 70.2285C47.5632 69.6023 47.4501 68.9701 47.381 68.3319C47.0062 67.8244 46.509 67.4632 45.8898 67.2481C45.7736 67.0806 45.6833 66.9 45.6187 66.7062C46.3169 66.6158 46.9948 66.5254 47.6521 66.4352C51.3526 64.3618 55.2388 62.6457 59.3107 61.2872C59.8072 61.257 60.259 61.1215 60.6664 60.8808C61.6118 60.4003 62.606 60.0841 63.6488 59.9325C64.4867 59.9285 65.3226 59.8834 66.1568 59.797C66.5106 59.8015 66.8044 59.8918 67.0379 60.0679Z" fill="#D2B386"/>
<path fill-rule="evenodd" clip-rule="evenodd" d="M86.8307 59.9325C88.096 60.0229 89.3613 60.1131 90.6266 60.2034C88.9883 60.1436 87.3615 60.2339 85.7462 60.4744C85.6558 60.384 85.5655 60.2938 85.4751 60.2034C85.9368 60.1417 86.3887 60.0514 86.8307 59.9325Z" fill="#4E3113"/>
<path fill-rule="evenodd" clip-rule="evenodd" d="M56.8706 56.2746C57.4148 56.2522 57.957 56.2748 58.4974 56.3424C60.3117 57.1814 62.074 58.1297 63.7844 59.1873C65.4143 59.1902 67.0411 59.2128 68.6648 59.2551C68.0338 59.8631 67.4238 60.4953 66.8346 61.1517C66.6869 61.7758 66.8902 62.0015 67.4447 61.8291C67.5792 61.8058 67.6694 61.851 67.7158 61.9646C66.7786 62.4575 65.7846 62.8189 64.7334 63.0483C64.7671 62.491 64.9705 61.9944 65.3434 61.5581C65.9738 61.1311 66.5387 60.6343 67.038 60.0679C67.2158 59.9805 67.3514 59.8451 67.4447 59.6615C66.5443 59.5038 65.6406 59.4812 64.7334 59.5938C64.3325 59.6316 63.9711 59.7445 63.6489 59.9324C62.6061 60.084 61.6119 60.4002 60.6664 60.8808C60.3502 60.8808 60.0337 60.8808 59.7175 60.8808C59.7175 60.7904 59.7175 60.7002 59.7175 60.6098C60.69 60.528 61.5712 60.2119 62.361 59.6615C62.4514 59.526 62.4514 59.3905 62.361 59.2551C61.2194 58.0288 59.8186 57.2159 58.1585 56.8165C57.9641 56.8656 57.8059 56.9558 57.684 57.0875C57.684 56.8617 57.684 56.636 57.684 56.4101C57.381 56.4501 57.1099 56.4048 56.8706 56.2746Z" fill="#3F1A0E"/>
<path fill-rule="evenodd" clip-rule="evenodd" d="M67.0381 60.0679C66.8045 59.8918 66.5107 59.8014 66.1569 59.797C65.3227 59.8834 64.4869 59.9285 63.6489 59.9324C63.9712 59.7445 64.3326 59.6315 64.7334 59.5938C65.6406 59.4812 66.5443 59.5038 67.4447 59.6615C67.3515 59.8451 67.2159 59.9805 67.0381 60.0679Z" fill="#D2B386"/>
<path fill-rule="evenodd" clip-rule="evenodd" d="M84.3903 56.0037C84.4808 56.4552 84.571 56.9069 84.6615 57.3584C84.2603 58.4935 83.8763 59.6224 83.5092 60.7453C84.1437 60.4964 84.7989 60.3157 85.4749 60.2034C85.5653 60.2937 85.6556 60.3839 85.746 60.4743C83.6428 60.9379 81.6545 61.7056 79.7811 62.7774C79.5409 62.673 79.4053 62.4925 79.3744 62.2355C79.4649 61.8742 79.5551 61.513 79.6456 61.1517C79.5378 60.6129 79.2214 60.3646 78.6966 60.4066C78.1297 60.5783 77.5874 60.7816 77.0698 61.0162C77.0698 60.9711 77.0698 60.9258 77.0698 60.8807C77.1441 60.6241 77.2797 60.3984 77.4765 60.2034C78.1045 60.0912 78.737 60.0234 79.3744 60.0001C79.6873 59.7379 80.0489 59.625 80.459 59.6615C80.4813 60.0703 80.4587 60.4767 80.3912 60.8807C80.1858 61.3324 80.118 61.7839 80.1878 62.2355C80.9612 61.7135 81.7746 61.2619 82.628 60.8807C82.9436 60.4964 83.2374 60.09 83.5092 59.6615C83.9495 58.4777 84.2431 57.2584 84.3903 56.0037Z" fill="#39160D"/>
<path fill-rule="evenodd" clip-rule="evenodd" d="M59.7176 60.6099C59.7176 60.7003 59.7176 60.7905 59.7176 60.8808C58.7612 61.079 57.8122 61.3049 56.8707 61.5582C57.0368 61.2942 56.9464 61.1136 56.5996 61.0163C56.69 60.9712 56.7803 60.926 56.8707 60.8808C57.4465 61.1775 57.9887 61.1098 58.4975 60.6776C58.9018 60.6102 59.3085 60.5875 59.7176 60.6099Z" fill="#DD6E53"/>
<path fill-rule="evenodd" clip-rule="evenodd" d="M33.6889 59.1197C33.6733 59.6587 33.6056 60.1554 33.4856 60.6099C33.4404 60.655 33.3952 60.7002 33.35 60.7453C33.2269 60.4827 33.0236 60.3472 32.74 60.3389C32.8208 61.2107 32.8886 62.0687 32.9433 62.9129C33.0824 63.3455 33.3761 63.5261 33.8245 63.4548C33.6514 63.7819 33.4255 63.8045 33.1467 63.5226C32.0296 62.2728 31.5778 60.8051 31.791 59.1197C31.9266 59.1197 32.0622 59.1197 32.1977 59.1197C32.2035 58.4291 32.4069 57.7969 32.8078 57.223C32.708 58.1674 32.7306 59.1157 32.8755 60.068C33.0111 60.068 33.1467 60.068 33.2822 60.068C33.3103 59.6966 33.4459 59.3806 33.6889 59.1197Z" fill="#40160E"/>
<path fill-rule="evenodd" clip-rule="evenodd" d="M59.7177 60.8807C60.034 60.8807 60.3504 60.8807 60.6667 60.8807C60.2593 61.1215 59.8075 61.2569 59.311 61.2872C59.5008 61.2059 59.6364 61.0704 59.7177 60.8807Z" fill="#583F29"/>
<path fill-rule="evenodd" clip-rule="evenodd" d="M55.3793 60.6099C55.374 60.7566 55.3287 60.8921 55.2437 61.0163C54.8359 61.262 54.4292 61.4879 54.0236 61.6937C54.5519 61.887 55.0942 62.0225 55.6504 62.1001C54.3935 62.5917 53.1282 63.0884 51.8546 63.5903C51.8546 63.4548 51.8546 63.3193 51.8546 63.1839C52.5091 63.0863 53.1418 62.9057 53.7525 62.642C53.5718 62.5516 53.391 62.4614 53.2102 62.371C53.4356 62.259 53.6163 62.101 53.7525 61.8969C53.6621 61.8742 53.5718 61.8518 53.4814 61.8291C52.9298 62.0077 52.5004 62.2334 52.1935 62.5065C50.5924 62.4006 48.9881 62.3328 47.381 62.3033C47.0767 62.2965 46.8508 62.1837 46.7031 61.9646C47.01 62.062 47.3263 62.1071 47.6521 62.1001C49.0292 62.2571 50.4301 62.2796 51.8546 62.1678C52.0658 62.1394 52.2465 62.0716 52.3969 61.9646C53.3817 61.5181 54.3758 61.0665 55.3793 60.6099Z" fill="#DD6E53"/>
<path fill-rule="evenodd" clip-rule="evenodd" d="M72.3252 61.1517C71.8413 61.621 71.2991 62.0274 70.6984 62.371C70.2813 62.6499 69.8294 62.8305 69.3427 62.9129C69.4048 62.3658 69.4951 61.8239 69.6139 61.2872C68.9204 61.3636 68.2879 61.5894 67.716 61.9646C67.6696 61.851 67.5793 61.8058 67.4448 61.8291C68.366 61.1882 69.3601 60.6914 70.4273 60.3389C70.377 60.9009 70.2414 61.4428 70.0206 61.9646C70.111 62.0097 70.2013 62.0549 70.2917 62.1C70.9208 61.6727 71.5987 61.3565 72.3252 61.1517Z" fill="#39160D"/>
<path fill-rule="evenodd" clip-rule="evenodd" d="M42.9075 66.7062C43.3518 66.6677 43.781 66.7128 44.1954 66.8416C44.1161 67.2439 43.958 67.6278 43.7209 67.9932C40.6513 68.2304 37.5785 68.2529 34.5025 68.0609C32.2212 67.9482 29.9166 67.8805 27.5887 67.8577C27.4398 67.7534 27.4398 67.6405 27.5887 67.519C27.6954 67.3017 27.8761 67.2114 28.1309 67.2481C30.8725 67.2985 33.5838 67.163 36.2649 66.8416C36.31 66.8416 36.3553 66.8416 36.4004 66.8416C38.0547 66.8735 41.2008 66.6124 42.8 66.4C42.9374 65.641 43.7374 66.3763 43.6 65.6C44.3826 65.7465 42.7187 64.7753 43.2464 65.3514C43.0957 65.76 42.8924 66.1664 42.6364 66.5707C42.6984 66.6788 42.7888 66.7239 42.9075 66.7062Z" fill="#D7AB89"/>
<path fill-rule="evenodd" clip-rule="evenodd" d="M41.2807 66.5707C39.6815 66.7831 38.0547 66.8735 36.4004 66.8416C38.002 66.6717 39.6287 66.5814 41.2807 66.5707Z" fill="#8C6553"/>
<path fill-rule="evenodd" clip-rule="evenodd" d="M46.568 24.3028C46.4176 24.4099 46.2369 24.4776 46.0257 24.5061C45.8053 24.862 45.5341 25.1781 45.2123 25.4544C44.8916 25.5306 44.5753 25.508 44.2634 25.3866C42.3962 26.1162 40.6339 27.0194 38.9763 28.0961C38.4591 28.2426 37.962 28.4231 37.4851 28.638C37.3147 29.1592 36.9531 29.4752 36.4006 29.5863C36.4006 29.7218 36.4006 29.8573 36.4006 29.9927C36.2199 29.9927 36.039 29.9927 35.8583 29.9927C35.6246 30.3198 35.4438 30.681 35.3161 31.0765C34.0525 32.2726 32.9002 33.5823 31.8592 35.0053C31.102 36.5506 30.2435 38.0408 29.2834 39.4759C28.2599 42.212 27.4465 45.0117 26.8432 47.8753C26.2607 54.0457 27.1193 60.0066 29.419 65.7579C29.5476 65.9737 29.7057 66.1543 29.8935 66.2998C30.0391 66.4874 30.2198 66.6454 30.4357 66.7739C31.7317 66.9006 32.9971 66.8329 34.2315 66.5707C34.9561 66.5454 35.6791 66.5003 36.4006 66.4352C36.4742 66.4271 36.5193 66.382 36.5361 66.2998C35.8282 64.8853 35.1957 63.4402 34.6382 61.9646C34.3811 62.0822 34.2004 62.2628 34.096 62.5065C34.0053 61.9334 34.2313 61.6851 34.7738 61.7614C34.932 61.8291 35.0449 61.942 35.1127 62.1001C35.1756 62.0196 35.1983 61.9292 35.1805 61.8291C35.6609 63.5118 36.4291 65.0472 37.4851 66.4352C37.882 66.5685 38.2887 66.6137 38.7052 66.5707C38.6531 66.0147 38.4498 65.5179 38.0951 65.0805C37.6806 64.5825 37.2739 64.0858 36.8751 63.5903C36.5231 62.5786 36.0938 61.6078 35.5872 60.6776C35.4587 60.6122 35.3231 60.5897 35.1805 60.6099C35.1805 60.9259 35.1805 61.2421 35.1805 61.5582C34.7113 61.2987 34.4853 60.8923 34.5027 60.3389C34.6382 60.3389 34.7738 60.3389 34.9094 60.3389C34.824 59.9214 34.6884 59.515 34.5027 59.1196C34.3503 59.3728 34.2374 59.6438 34.1638 59.9325C34.0733 59.8421 33.9831 59.7519 33.8926 59.6615C33.8674 59.318 33.7996 59.0019 33.6893 58.7132C33.8534 58.2491 34.0568 57.7976 34.2993 57.3585C34.4173 57.4408 34.485 57.5537 34.5027 57.6972C34.1476 58.2634 33.9894 58.8731 34.0282 59.5261C34.2977 58.7606 34.7948 58.2187 35.5194 57.9004C35.5872 57.9455 35.655 57.9907 35.7228 58.0358C35.5816 58.3183 35.3783 58.5442 35.1127 58.7132C34.9214 59.0045 34.8084 59.3207 34.7738 59.6615C34.9331 59.6912 35.0687 59.6461 35.1805 59.5261C35.4093 59.2974 35.6352 59.0717 35.8583 58.8487C36.0676 58.8212 36.2485 58.7308 36.4006 58.5777C36.4699 58.9007 36.6054 59.1717 36.8073 59.3906C37.1759 59.9876 37.5826 60.5748 38.0274 61.1518C39.9158 62.9309 42.1301 64.105 44.6701 64.6741C45.6393 65.0343 46.6561 65.2601 47.7203 65.3514C48.1354 65.3188 48.5194 65.2284 48.8726 65.0805C49.298 64.8102 49.7724 64.6296 50.296 64.5386C50.8483 64.2588 51.368 63.9428 51.855 63.5903C53.1286 63.0884 54.3939 62.5917 55.6508 62.1001C56.0517 61.9208 56.4584 61.7401 56.8709 61.5582C57.8124 61.3048 58.7614 61.079 59.7178 60.8808C59.6364 61.0705 59.5009 61.2059 59.3111 61.2872C55.2391 62.6458 51.353 64.3618 47.6525 66.4352C46.296 66.4127 44.9404 66.4352 43.5855 66.503C43.3304 66.5298 43.1045 66.5975 42.9077 66.7062C42.7889 66.7239 42.6985 66.6788 42.6366 66.5707C42.8925 66.1665 43.0959 65.76 43.2466 65.3514C42.7189 64.7753 42.0635 64.4141 41.2809 64.2677C41.4183 65.0439 41.4183 65.8117 41.2809 66.5707C39.6289 66.5814 38.0021 66.6718 36.4006 66.8417C36.3554 66.8417 36.3102 66.8417 36.265 66.8417C33.5328 66.9775 30.8215 67.113 28.1311 67.2481C27.8762 67.2114 27.6955 67.3017 27.5889 67.519C27.3818 67.5091 27.2463 67.5995 27.1822 67.79C26.8752 67.8874 26.559 67.9325 26.2332 67.9254C25.8689 67.9032 25.5074 67.9259 25.1487 67.9932C24.6787 68.2788 24.1816 68.5272 23.6575 68.7383C23.4587 68.6523 23.2779 68.5393 23.1152 68.3996C23.2773 68.311 23.2773 68.2433 23.1152 68.1964C23.0248 68.2415 22.9345 68.2868 22.8441 68.3319C22.5355 68.2353 22.2193 68.1675 21.8951 68.1287C20.6555 68.1086 19.4354 68.086 18.2349 68.0609C15.9617 68.1955 13.7024 68.06 11.4566 67.6545C11.0379 67.4804 10.586 67.3902 10.101 67.3836C8.90058 67.1301 7.6805 66.8816 6.4407 66.6384C6.00153 66.541 5.59483 66.3831 5.22062 66.1643C5.20899 66.0294 5.25418 65.9165 5.35618 65.8256C5.62361 65.7585 5.89474 65.7359 6.16957 65.7579C6.26849 65.9672 6.44924 66.08 6.71183 66.0966C7.25966 66.2086 7.80192 66.186 8.33861 66.0288C7.46366 65.7045 6.60509 65.3432 5.76288 64.945C5.48638 64.7497 5.33503 64.4878 4.97891 64.4122C4.84003 64.2291 4.53948 64.1749 4.40723 63.9967C4.64967 63.8447 4.9208 63.8221 5.22062 63.929C6.27251 64.3877 7.35703 64.7264 8.47418 64.945C8.61891 65.0716 8.79967 65.1168 9.01644 65.0805C9.84622 65.2863 10.7048 65.4218 11.5922 65.4869C12.6452 65.7526 13.7298 65.9333 14.8457 66.0288C15.9033 66.1608 16.9427 66.2962 17.9637 66.4352C18.7562 66.6137 19.5696 66.6137 20.4039 66.4352C20.3354 66.243 20.1999 66.1528 19.9972 66.1643C17.4719 64.0472 15.8451 61.383 15.1169 58.1713C15.0944 57.0415 15.1169 55.9126 15.1846 54.7845C15.8454 51.3 17.924 49.4937 21.4206 49.3655C22.7191 49.2815 23.9167 49.575 25.0131 50.2461C25.313 50.353 25.5841 50.3304 25.8265 50.1784C26.1521 46.529 26.988 43.0066 28.3345 39.6114C29.392 37.4701 30.5668 35.3929 31.8592 33.3796C32.9929 31.9079 34.2808 30.5984 35.7228 29.4509C37.2752 28.5097 38.8117 27.5388 40.332 26.5382C40.7838 26.3576 41.2358 26.1769 41.6876 25.9963C42.0642 25.6436 42.2901 25.2146 42.3654 24.7093C42.4106 24.7093 42.4559 24.7093 42.501 24.7093C42.6081 24.8846 42.7437 25.0426 42.9077 25.1834C43.6759 25.2737 44.4441 25.2737 45.2123 25.1834C45.411 24.9731 45.5466 24.7248 45.619 24.4383C45.9231 24.3063 46.2394 24.2612 46.568 24.3028Z" fill="#3A160D"/>
<path fill-rule="evenodd" clip-rule="evenodd" d="M29.8931 66.2997C30.1768 66.3735 30.4479 66.4864 30.7065 66.6384C31.8832 66.711 33.058 66.6885 34.2311 66.5706C32.9967 66.8328 31.7313 66.9005 30.4353 66.7738C30.2194 66.6453 30.0387 66.4873 29.8931 66.2997Z" fill="#DD6E53"/>
<path fill-rule="evenodd" clip-rule="evenodd" d="M21.7593 66.5707C24.1741 66.7448 26.5691 66.7448 28.9442 66.5707C29.0178 66.5788 29.063 66.6239 29.0798 66.7062C26.7765 66.8641 24.4719 66.8867 22.166 66.7739C21.9983 66.7425 21.8627 66.6747 21.7593 66.5707Z" fill="#DD6E53"/>
<path fill-rule="evenodd" clip-rule="evenodd" d="M36.4005 66.4352C35.679 66.5003 34.956 66.5454 34.2314 66.5707C34.9471 66.3254 35.6701 66.2803 36.4005 66.4352Z" fill="#DD6E53"/>
<path fill-rule="evenodd" clip-rule="evenodd" d="M19.9969 66.1643C20.1995 66.1528 20.3351 66.243 20.4035 66.4353C19.5693 66.6137 18.7559 66.6137 17.9634 66.4353C18.6878 66.4577 19.4108 66.4351 20.1324 66.3675C20.057 66.3156 20.0119 66.2479 19.9969 66.1643Z" fill="#3A160D"/>
<path fill-rule="evenodd" clip-rule="evenodd" d="M44.6699 64.6741C45.1241 64.6518 45.5759 64.6744 46.0256 64.7418C46.3286 65.012 46.6222 64.9895 46.9067 64.6741C47.4951 65.0476 48.1504 65.1831 48.8724 65.0805C48.5193 65.2285 48.1352 65.3188 47.7201 65.3515C46.6559 65.2602 45.6392 65.0343 44.6699 64.6741Z" fill="#DD6E53"/>
<path fill-rule="evenodd" clip-rule="evenodd" d="M35.1802 61.8291C35.1802 61.7387 35.1802 61.6485 35.1802 61.5581C35.1802 61.2421 35.1802 60.9259 35.1802 60.6098C35.3228 60.5896 35.4584 60.6121 35.5869 60.6776C36.0935 61.6077 36.5228 62.5785 36.8747 63.5902C37.2736 64.0858 37.6803 64.5825 38.0948 65.0805C38.4495 65.5179 38.6528 66.0147 38.7049 66.5707C38.2884 66.6136 37.8817 66.5685 37.4848 66.4352C36.4287 65.0471 35.6606 63.5118 35.1802 61.8291Z" fill="#DD6E53"/>
<path fill-rule="evenodd" clip-rule="evenodd" d="M52.3971 61.9646C52.2468 62.0716 52.0661 62.1394 51.8549 62.1678C50.4303 62.2796 49.0294 62.2571 47.6523 62.1001C49.2375 62.13 50.8191 62.0849 52.3971 61.9646Z" fill="#160504"/>
<path fill-rule="evenodd" clip-rule="evenodd" d="M46.1611 61.6936C46.6935 61.7513 47.1905 61.8868 47.6523 62.1C47.3266 62.1071 47.0103 62.062 46.7034 61.9646C46.4346 62.011 46.2537 61.9207 46.1611 61.6936Z" fill="#DD6E53"/>
<path fill-rule="evenodd" clip-rule="evenodd" d="M33.6892 58.7131C33.7995 59.0018 33.8673 59.3179 33.8925 59.6615C33.983 59.7518 34.0732 59.842 34.1637 59.9324C34.2373 59.6437 34.3502 59.3728 34.5026 59.1196C34.6883 59.5149 34.8239 59.9213 34.9093 60.3388C34.7737 60.3388 34.6381 60.3388 34.5026 60.3388C34.4852 60.8922 34.7112 61.2987 35.1804 61.5581C35.1804 61.6484 35.1804 61.7387 35.1804 61.829C35.1982 61.9292 35.1755 62.0195 35.1126 62.1C35.0448 61.9419 34.9319 61.829 34.7737 61.7613C34.2312 61.685 34.0052 61.9334 34.0959 62.5064C34.1103 62.8558 34.0198 63.1719 33.8248 63.4547C33.3763 63.526 33.0827 63.3454 32.9436 62.9128C32.8888 62.0686 32.821 61.2106 32.7402 60.3388C33.0238 60.3471 33.2272 60.4826 33.3503 60.7452C33.3954 60.7001 33.4407 60.6549 33.4858 60.6098C33.6058 60.1553 33.6736 59.6586 33.6892 59.1196C33.6892 58.9841 33.6892 58.8486 33.6892 58.7131Z" fill="#37160D"/>
<path fill-rule="evenodd" clip-rule="evenodd" d="M25.2839 58.3068C24.5328 58.515 23.8776 58.9214 23.3182 59.526C22.6771 60.59 22.7224 61.6287 23.4538 62.6419C23.5526 63.1612 23.3268 63.3869 22.776 63.3193C21.1745 62.6166 20.203 61.3973 19.8613 59.6615C20.0271 59.1945 20.2305 58.743 20.4714 58.3068C20.8103 58.1487 21.0588 57.9003 21.217 57.5617C21.7347 57.1898 22.277 56.8511 22.8438 56.5456C23.5686 56.468 24.2916 56.3776 25.0128 56.2747C25.2366 56.9287 25.3269 57.6061 25.2839 58.3068Z" fill="#3A160C"/>
<path fill-rule="evenodd" clip-rule="evenodd" d="M19.7259 50.0428C21.2648 50.1426 22.8011 50.278 24.3351 50.4493C24.8735 50.7164 25.2802 51.1228 25.5552 51.6685C25.6378 51.7892 25.683 51.9247 25.6907 52.075C25.8131 52.4666 25.8583 52.873 25.8263 53.2942C25.1794 52.9028 24.5015 52.5417 23.7928 52.2104C22.7193 51.4017 21.5443 51.2436 20.2681 51.7363C18.7179 52.6101 17.7238 53.9196 17.2857 55.665C17.3628 56.244 17.634 56.3795 18.0991 56.0714C18.438 55.5973 18.7769 55.1231 19.1158 54.649C19.5312 54.3883 19.9154 54.1174 20.2681 53.8361C20.4037 53.8361 20.5392 53.8361 20.6748 53.8361C21.8531 53.7913 23.0281 53.8364 24.1995 53.9716C25.0494 54.1342 25.343 54.6309 25.0807 55.4618C24.382 55.9417 23.6364 56.3028 22.8439 56.5456C22.2771 56.8511 21.7348 57.1898 21.2171 57.5617C21.0589 57.9003 20.8104 58.1487 20.4715 58.3068C20.2306 58.743 20.0272 59.1945 19.8614 59.6615C20.203 61.3973 21.1746 62.6166 22.7761 63.3193C23.3269 63.3869 23.5527 63.1612 23.4539 62.6419C22.7225 61.6287 22.6772 60.59 23.3183 59.526C23.8777 58.9214 24.5329 58.515 25.284 58.3068C25.5008 58.3431 25.6815 58.2978 25.8263 58.1713C25.9167 58.1713 26.007 58.1713 26.0974 58.1713C26.2766 58.1483 26.4348 58.1934 26.5719 58.3068C27.2128 61.1082 28.0036 63.863 28.9443 66.5707C26.5692 66.7448 24.1742 66.7448 21.7593 66.5707C21.5024 66.4077 21.2313 66.2497 20.9459 66.0965C19.2256 64.5571 17.8022 62.7733 16.6756 60.7453C15.8335 58.8919 15.5624 56.95 15.8623 54.9199C16.1574 52.4654 17.4452 50.8397 19.7259 50.0428Z" fill="#DD6E53"/>
<path fill-rule="evenodd" clip-rule="evenodd" d="M25.6907 52.075C25.8652 52.2607 25.9554 52.5091 25.9618 52.8201C25.9392 53.0684 25.9167 53.3168 25.894 53.5652C25.8523 53.6746 25.7845 53.765 25.6907 53.8361C25.5848 53.6685 25.4492 53.5331 25.284 53.4297C25.0531 53.618 24.9627 53.8212 25.0129 54.0393C25.137 54.09 25.2501 54.1577 25.3518 54.2425C25.4505 54.9244 25.4278 55.6017 25.284 56.2746C25.4987 56.9158 25.6794 57.548 25.8262 58.1713C25.6815 58.2978 25.5008 58.3431 25.284 58.3068C25.327 57.6061 25.2367 56.9287 25.0129 56.2746C24.2917 56.3776 23.5687 56.468 22.8438 56.5456C23.6363 56.3028 24.3819 55.9416 25.0806 55.4618C25.343 54.6309 25.0493 54.1342 24.1995 53.9716C23.0281 53.8364 21.8531 53.7913 20.6748 53.8361C20.6313 53.6264 20.4957 53.536 20.2681 53.5652C20.2304 53.3151 20.3208 53.1344 20.5392 53.0233C20.6593 53.135 20.7045 53.2705 20.6748 53.4297C21.7178 53.3145 22.7571 53.2694 23.7928 53.2942C23.9735 53.1136 24.1543 52.9329 24.335 52.7523C24.0808 52.6292 23.9001 52.4485 23.7928 52.2104C24.5015 52.5417 25.1793 52.9028 25.8262 53.2942C25.8582 52.873 25.8131 52.4666 25.6907 52.075Z" fill="#40170F"/>
<path fill-rule="evenodd" clip-rule="evenodd" d="M26.0975 58.1713C26.007 58.1713 25.9167 58.1713 25.8263 58.1713C25.6795 57.548 25.4988 56.9158 25.2841 56.2747C25.4279 55.6018 25.4505 54.9244 25.3518 54.2425C25.2502 54.1577 25.1371 54.09 25.0129 54.0393C24.9628 53.8212 25.0532 53.618 25.2841 53.4297C25.4493 53.5331 25.5849 53.6685 25.6908 53.8361C25.7846 53.765 25.8524 53.6746 25.8941 53.5652C25.9167 53.3168 25.9393 53.0684 25.9619 52.8201C25.9555 52.5092 25.8652 52.2607 25.6908 52.075C25.683 51.9247 25.6379 51.7892 25.5552 51.6685C25.7024 51.6523 25.7928 51.5619 25.8263 51.3976C25.6036 51.0249 25.6487 50.7088 25.9619 50.4493C26.0557 50.5204 26.1235 50.6108 26.1652 50.7202C26.1884 50.0384 26.2562 49.361 26.3686 48.6881C26.5386 50.4058 26.5386 52.1218 26.3686 53.8361C26.233 53.8361 26.0975 53.8361 25.9619 53.8361C25.9378 54.2184 25.8473 54.5797 25.6908 54.9199C25.9304 55.986 26.066 57.0697 26.0975 58.1713Z" fill="#35170D"/>
<path fill-rule="evenodd" clip-rule="evenodd" d="M23.7928 52.2105C22.4097 51.7847 21.0541 51.8524 19.7258 52.4137C19.6294 52.5837 19.5165 52.7417 19.3869 52.8878C19.3418 52.8427 19.2965 52.7975 19.2513 52.7524C19.2154 52.9777 19.2832 53.1809 19.4547 53.362C19.1625 53.3777 18.8914 53.3326 18.6413 53.2265C18.7606 53.4102 18.8059 53.6134 18.7769 53.8362C18.554 53.8072 18.3506 53.8524 18.1668 53.9716C17.8591 54.6137 17.6557 55.291 17.5568 56.0037C17.6923 56.0037 17.8279 56.0037 17.9635 56.0037C17.9248 55.7615 17.97 55.5357 18.099 55.3264C18.5742 54.9403 18.8453 54.4435 18.9124 53.8362C19.3643 53.8362 19.8162 53.8362 20.2681 53.8362C19.9153 54.1174 19.5311 54.3884 19.1158 54.649C18.7769 55.1232 18.4379 55.5973 18.099 56.0715C17.6339 56.3796 17.3628 56.2441 17.2856 55.6651C17.7238 53.9196 18.7179 52.6101 20.2681 51.7363C21.5443 51.2436 22.7192 51.4017 23.7928 52.2105Z" fill="#44170D"/>
<path fill-rule="evenodd" clip-rule="evenodd" d="M23.7926 52.2105C23.9 52.4485 24.0807 52.6292 24.3349 52.7523C24.1542 52.9329 23.9733 53.1137 23.7926 53.2942C22.7569 53.2695 21.7177 53.3146 20.6746 53.4297C20.7043 53.2705 20.6592 53.1351 20.5391 53.0233C20.3207 53.1344 20.2303 53.3151 20.2679 53.5652C20.4956 53.5361 20.6311 53.6264 20.6746 53.8361C20.5391 53.8361 20.4035 53.8361 20.2679 53.8361C19.8161 53.8361 19.3641 53.8361 18.9123 53.8361C18.8452 54.4435 18.5741 54.9403 18.0989 55.3264C17.9698 55.5357 17.9247 55.7615 17.9633 56.0037C17.8278 56.0037 17.6922 56.0037 17.5566 56.0037C17.6556 55.291 17.859 54.6136 18.1667 53.9716C18.3505 53.8524 18.5539 53.8071 18.7767 53.8361C18.8057 53.6134 18.7605 53.4102 18.6412 53.2265C18.8913 53.3326 19.1624 53.3777 19.4546 53.362C19.2831 53.1809 19.2153 52.9776 19.2512 52.7523C19.2963 52.7975 19.3416 52.8427 19.3868 52.8878C19.5164 52.7416 19.6293 52.5837 19.7257 52.4137C21.0539 51.8524 22.4096 51.7847 23.7926 52.2105Z" fill="#36160D"/>
<path fill-rule="evenodd" clip-rule="evenodd" d="M24.3353 50.4493C22.8014 50.2781 21.265 50.1426 19.7261 50.0429C20.4577 49.7797 21.226 49.712 22.0307 49.8397C22.8187 49.9882 23.587 50.1914 24.3353 50.4493Z" fill="#5A221A"/>
<path fill-rule="evenodd" clip-rule="evenodd" d="M36.2648 66.8417C33.5837 67.163 30.8724 67.2985 28.1309 67.2481C30.8213 67.113 33.5326 66.9776 36.2648 66.8417Z" fill="#8C654E"/>
<path fill-rule="evenodd" clip-rule="evenodd" d="M68.2582 68.0609C68.1079 67.9538 67.9272 67.8861 67.716 67.8577C62.4964 67.7451 57.2997 67.7677 52.126 67.9254C51.1292 68.0763 50.1349 68.0763 49.1436 67.9254C49.1436 67.7899 49.1436 67.6544 49.1436 67.519C50.1374 67.4577 51.1316 67.39 52.126 67.3158C62.0222 67.238 71.9185 67.1703 81.8147 67.1125C81.8752 67.7078 81.6041 67.9335 81.0013 67.7899C77.7967 67.5486 74.5883 67.4809 71.3762 67.5867C70.3446 67.8037 69.3052 67.9618 68.2582 68.0609Z" fill="#58401C"/>
<path fill-rule="evenodd" clip-rule="evenodd" d="M52.126 67.9254C57.2997 67.7677 62.4964 67.7451 67.716 67.8577C67.9272 67.8861 68.1079 67.9539 68.2582 68.0609C62.8835 67.9293 57.5061 67.8842 52.126 67.9254Z" fill="#937A54"/>
<path fill-rule="evenodd" clip-rule="evenodd" d="M27.5888 67.519C27.44 67.6406 27.44 67.7534 27.5888 67.8577C29.9167 67.8805 32.2214 67.9482 34.5026 68.0609C32.0561 68.1025 29.6159 68.0573 27.1821 67.9255C27.1821 67.8804 27.1821 67.8351 27.1821 67.79C27.2463 67.5995 27.3818 67.5092 27.5888 67.519Z" fill="#BF8B70"/>
<path fill-rule="evenodd" clip-rule="evenodd" d="M47.6525 66.4352C46.9952 66.5254 46.3173 66.6158 45.6191 66.7061C45.6837 66.9 45.774 67.0806 45.8902 67.248C46.5094 67.4632 47.0066 67.8243 47.3814 68.3318C46.839 68.2635 46.3419 68.0828 45.8902 67.7899C45.2955 67.0271 44.7985 67.0722 44.399 67.9254C44.3085 67.9254 44.2634 67.9705 44.2634 68.0609C44.1413 68.1679 44.0508 68.3034 43.9923 68.4673C38.3511 68.6354 32.7025 68.5903 27.0466 68.3318C27.0145 68.1569 27.0597 68.0215 27.1822 67.9254C29.616 68.0572 32.0562 68.1025 34.5027 68.0609C37.5787 68.2528 40.6515 68.2304 43.7211 67.9931C43.9582 67.6278 44.1163 67.2438 44.1956 66.8416C43.7812 66.7128 43.352 66.6677 42.9078 66.7061C43.1046 66.5975 43.3304 66.5297 43.5856 66.5029C44.9404 66.4352 46.2961 66.4127 47.6525 66.4352Z" fill="#AA735D"/>
<path fill-rule="evenodd" clip-rule="evenodd" d="M45.8901 67.7899C45.7997 67.7899 45.7546 67.835 45.7546 67.9254C45.5468 67.7993 45.3208 67.7089 45.0768 67.6545C44.8494 67.7475 44.6234 67.8379 44.3989 67.9254C44.7984 67.0722 45.2954 67.0271 45.8901 67.7899Z" fill="#5D2D20"/>
<path fill-rule="evenodd" clip-rule="evenodd" d="M45.8901 67.7899C46.3418 68.0828 46.839 68.2635 47.3814 68.3318C47.4505 68.97 47.5636 69.6023 47.7203 70.2284C48.2834 72.0981 49.3228 73.6336 50.8383 74.8346C50.6729 72.971 50.7633 71.1195 51.1094 69.2801C51.2096 69.1346 51.3451 69.0443 51.5161 69.0092C52.1909 69.4359 52.801 69.9327 53.3462 70.4994C56.1243 72.538 59.2423 73.396 62.7002 73.0734C62.7448 72.7038 62.6545 72.3876 62.4291 72.1251C62.0216 71.5606 61.7053 70.9509 61.4801 70.2962C61.4954 70.1228 61.5859 70.0099 61.7512 69.9575C62.3102 70.2142 62.8524 70.5078 63.378 70.8381C64.3095 71.7017 65.2585 72.5372 66.2249 73.3443C66.2249 73.4347 66.2249 73.5249 66.2249 73.6153C65.0006 73.9315 63.8709 74.4281 62.8358 75.1055C62.5358 75.278 62.2195 75.4134 61.8868 75.5119C61.7681 75.5297 61.6776 75.4846 61.6157 75.3765C61.9095 75.1803 62.2257 75.0222 62.5646 74.9023C62.6666 74.8114 62.7119 74.6985 62.7002 74.5636C62.84 74.4621 62.9982 74.3719 63.1747 74.2927C63.2639 74.0748 63.1961 73.9167 62.9713 73.8185C61.2757 73.9291 59.6038 73.771 57.9554 73.3443C55.9858 72.4623 53.9523 71.7398 51.855 71.1768C51.4625 71.5848 51.2817 72.0816 51.3127 72.667C51.5386 73.8407 51.7644 75.0149 51.9906 76.1893C51.662 76.231 51.3457 76.1858 51.0416 76.0538C50.131 75.1815 49.3854 74.1881 48.8048 73.0734C48.553 72.7076 48.2141 72.4819 47.788 72.396C46.1203 72.2028 44.4484 71.9319 42.7721 71.5832C41.4394 70.8203 40.0837 70.0752 38.7052 69.3479C38.4837 69.2809 38.2577 69.2585 38.0274 69.2801C37.1282 69.1 36.1792 69.0096 35.1805 69.0092C34.2078 69.0092 33.2589 69.0544 32.3336 69.1447C32.4504 69.7814 32.7215 70.3458 33.147 70.8381C33.8654 71.2854 34.4981 71.8273 35.0449 72.4638C36.2269 73.236 37.447 73.9585 38.7052 74.6314C41.1885 76.0079 43.8546 76.8885 46.7035 77.2731C46.8539 77.3801 47.0346 77.4479 47.2458 77.4763C49.2706 77.6367 51.2589 77.5237 53.2106 77.1376C54.8624 76.902 56.5343 76.6762 58.2266 76.4603C59.4019 76.3385 60.5316 76.0675 61.6157 75.6474C61.0189 75.9762 60.3862 76.2698 59.7178 76.528C57.7217 77.0047 55.7334 77.4336 53.7529 77.815C51.6759 77.9185 49.5973 77.9637 47.5169 77.9505C45.5181 77.6776 43.5299 77.2712 41.5521 76.7312C38.8666 75.615 36.3361 74.2152 33.9604 72.5315C33.19 71.7086 32.4219 70.8958 31.6558 70.093C31.3447 69.7141 31.0058 69.3527 30.6391 69.0092C30.1451 69.2667 29.6706 69.5377 29.2156 69.822C28.7782 69.8459 28.3715 69.9362 27.9955 70.093C27.3629 70.093 26.7303 70.093 26.0976 70.093C25.3801 69.9358 24.6571 69.7326 23.9286 69.4833C23.7539 69.2392 23.5279 69.0811 23.2508 69.0092C22.9166 68.6926 22.5099 68.4894 22.0307 68.3995C20.9913 68.3544 19.9521 68.3092 18.9127 68.2641C18.6576 68.2373 18.4317 68.1695 18.2349 68.0609C19.4354 68.0859 20.6555 68.1086 21.8951 68.1286C22.2193 68.1675 22.5355 68.2352 22.8441 68.3318C22.9345 68.2867 23.0248 68.2415 23.1152 68.1963C23.2773 68.2432 23.2773 68.3109 23.1152 68.3995C23.2779 68.5392 23.4587 68.6522 23.6575 68.7382C24.1816 68.5272 24.6787 68.2787 25.1487 67.9931C25.5074 67.9258 25.8689 67.9032 26.2332 67.9254C26.1337 68.089 26.0886 68.2696 26.0976 68.4673C30.2535 68.6151 34.4108 68.7053 38.5696 68.7382C40.4247 68.7381 42.2322 68.6479 43.9922 68.4673C44.0508 68.3034 44.1412 68.1679 44.2634 68.0609C44.1602 69.1772 44.6572 69.6287 45.7546 69.4156C45.921 68.9165 45.921 68.4199 45.7546 67.9254C45.7546 67.835 45.7997 67.7899 45.8901 67.7899Z" fill="#3D180E"/>
<path fill-rule="evenodd" clip-rule="evenodd" d="M45.7545 67.9255C45.921 68.42 45.921 68.9166 45.7545 69.4157C44.6571 69.6288 44.1601 69.1773 44.2633 68.061C44.2633 67.9706 44.3084 67.9255 44.3989 67.9255C44.6234 67.838 44.8493 67.7476 45.0767 67.6545C45.3207 67.709 45.5467 67.7994 45.7545 67.9255Z" fill="white"/>
<path fill-rule="evenodd" clip-rule="evenodd" d="M27.1819 67.7899C27.1819 67.835 27.1819 67.8803 27.1819 67.9254C27.0593 68.0214 27.0142 68.1569 27.0463 68.3318C32.7022 68.5903 38.3508 68.6354 43.9919 68.4673C42.2319 68.6479 40.4244 68.7381 38.5693 68.7382C34.4105 68.7053 30.2532 68.6151 26.0973 68.4673C26.0882 68.2696 26.1334 68.089 26.2329 67.9254C26.5587 67.9324 26.8749 67.8873 27.1819 67.7899Z" fill="#714132"/>
<path fill-rule="evenodd" clip-rule="evenodd" d="M24.4707 68.7382C25.8765 68.5624 27.2773 68.6075 28.6732 68.8737C27.2711 68.8618 25.8703 68.8166 24.4707 68.7382Z" fill="#653830"/>
<path fill-rule="evenodd" clip-rule="evenodd" d="M32.3335 69.1448C33.2587 69.0545 34.2077 69.0093 35.1804 69.0093C36.1791 69.0097 37.128 69.1 38.0272 69.2802C36.1332 69.1544 34.2353 69.1093 32.3335 69.1448Z" fill="#DD6E53"/>
<path fill-rule="evenodd" clip-rule="evenodd" d="M24.4707 68.7383C25.8702 68.8166 27.271 68.8618 28.6732 68.8738C29.2436 68.9801 29.2889 69.093 28.8087 69.2124C27.5518 69.4228 26.2866 69.4679 25.0129 69.3479C24.7392 69.287 24.4907 69.1741 24.2673 69.0092C24.1957 68.8309 24.2635 68.7406 24.4707 68.7383Z" fill="#935D53"/>
<path fill-rule="evenodd" clip-rule="evenodd" d="M32.3335 69.1447C34.2353 69.1092 36.1332 69.1543 38.0272 69.2801C38.2576 69.2585 38.4835 69.2809 38.7051 69.3479C40.0836 70.0752 41.4393 70.8203 42.772 71.5832C42.8436 71.7486 42.934 71.9066 43.0431 72.0573C44.6233 72.1984 46.2049 72.3112 47.7879 72.396C48.214 72.4819 48.5529 72.7076 48.8046 73.0734C49.3853 74.1881 50.1309 75.1815 51.0415 76.0538C51.3455 76.1858 51.6618 76.231 51.9904 76.1893C51.7643 75.0149 51.5385 73.8407 51.3126 72.667C51.2816 72.0816 51.4624 71.5848 51.8549 71.1768C53.9522 71.7398 55.9857 72.4623 57.9553 73.3443C58.0389 73.5786 58.1745 73.7818 58.362 73.954C59.8536 73.8915 61.3448 73.9593 62.8356 74.1572C62.6744 74.283 62.4937 74.3282 62.2934 74.2927C62.2934 74.4281 62.2934 74.5636 62.2934 74.6991C60.9614 75.3966 59.6058 75.9837 58.2264 76.4602C56.5342 76.6762 54.8622 76.902 53.2105 77.1376C51.0461 77.4213 48.877 77.4664 46.7034 77.2731C43.8545 76.8885 41.1883 76.0079 38.7051 74.6313C37.4469 73.9585 36.2268 73.236 35.0448 72.4638C34.4979 71.8273 33.8652 71.2854 33.1469 70.8381C32.7213 70.3458 32.4502 69.7814 32.3335 69.1447Z" fill="#DD6E53"/>
<path fill-rule="evenodd" clip-rule="evenodd" d="M44.5343 71.5833C45.3489 71.6057 46.1623 71.5831 46.9745 71.5155C47.2834 71.4605 47.4643 71.2799 47.5167 70.9736C47.2357 70.6643 47.0549 70.3032 46.9745 69.8898C46.0464 69.8665 45.1426 69.7988 44.2632 69.6866C45.0579 69.709 45.8488 69.6637 46.6356 69.5511C47.5051 69.9862 47.7987 70.6861 47.5167 71.651C46.4984 71.7624 45.5043 71.7397 44.5343 71.5833Z" fill="#DD6E53"/>
<path fill-rule="evenodd" clip-rule="evenodd" d="M44.263 69.6865C45.1424 69.7987 46.0462 69.8665 46.9743 69.8898C47.0547 70.3031 47.2355 70.6643 47.5166 70.9735C47.4641 71.2799 47.2832 71.4604 46.9743 71.5154C46.1621 71.583 45.3487 71.6057 44.5341 71.5832C43.5933 71.262 42.6443 70.9233 41.6873 70.5671C41.4321 70.2815 41.1159 70.101 40.7383 70.0252C40.334 69.7284 40.2889 69.4123 40.6027 69.0769C41.8975 68.916 43.1176 69.1192 44.263 69.6865Z" fill="#DD6E53"/>
<path fill-rule="evenodd" clip-rule="evenodd" d="M42.772 71.5833C44.4482 71.932 46.1202 72.2029 47.7879 72.3961C46.2049 72.3113 44.6232 72.1984 43.0431 72.0574C42.934 71.9066 42.8436 71.7487 42.772 71.5833Z" fill="#DD6E53"/>
<path fill-rule="evenodd" clip-rule="evenodd" d="M53.3462 70.4994C54.2173 70.6637 54.9854 71.0475 55.6508 71.6509C56.9685 71.8926 58.2564 72.2313 59.5144 72.667C60.4672 72.9073 61.3935 72.8396 62.2935 72.4638C62.3954 72.3729 62.4407 72.26 62.4291 72.1251C62.6545 72.3876 62.7448 72.7038 62.7002 73.0734C59.2423 73.396 56.1243 72.538 53.3462 70.4994Z" fill="#D2B386"/>
<path fill-rule="evenodd" clip-rule="evenodd" d="M87.7795 59.797C88.9564 59.7998 90.1312 59.845 91.3041 59.9325C92.2412 60.1606 93.1901 60.4091 94.151 60.6776C94.6897 61.1135 95.2771 61.4747 95.9134 61.7614C96.0884 62.0445 95.9979 62.2252 95.6422 62.3033C95.0548 62.3484 94.4673 62.3936 93.8799 62.4387C90.8871 63.491 88.1985 65.0489 85.8138 67.1126C85.5224 67.5985 85.5676 68.0501 85.9493 68.4673C86.5138 68.9789 87.1239 69.4305 87.7795 69.8221C88.1582 70.0234 88.5649 70.1137 88.9995 70.093C89.6176 70.0571 90.2276 69.9668 90.8297 69.8221C91.4116 69.9162 91.5697 70.2323 91.3041 70.7704C89.6775 72.3057 87.7796 73.3443 85.6104 73.8863C84.184 74.0136 82.7832 74.1942 81.4079 74.4282C79.5103 74.3748 77.6123 74.3297 75.7142 74.2927C74.7028 74.1068 73.6636 74.0165 72.5962 74.0218C72.4675 73.9334 72.3094 73.8882 72.1217 73.8863C70.7149 74.2267 69.2915 74.3396 67.8514 74.225C67.2472 74.1641 66.7049 73.9609 66.2246 73.6153C66.2246 73.525 66.2246 73.4348 66.2246 73.3444C66.8849 73.5658 67.5628 73.7239 68.2581 73.8186C70.121 74.0647 70.2792 73.7711 68.7326 72.938C68.4025 72.4728 68.1313 71.9761 67.9192 71.4478C67.5616 70.4167 67.6971 69.4683 68.3259 68.6028C69.0186 71.0561 70.5776 72.6593 73.0029 73.4121C74.961 73.6561 76.9267 73.769 78.8999 73.7508C81.496 73.8278 84.0491 73.5343 86.5594 72.8702C87.9452 72.4943 89.1653 71.8395 90.2196 70.9059C89.1385 70.76 88.0992 70.4664 87.1016 70.0253C86.0519 69.5013 85.329 68.6884 84.9326 67.5867C85.2392 67.0092 85.6459 66.5126 86.1527 66.0965C86.9282 65.457 87.7416 64.87 88.5928 64.3354C90.4197 63.4773 92.2272 62.5967 94.0154 61.6936C93.4969 61.3215 92.9546 60.9828 92.3887 60.6776C91.8018 60.5034 91.2143 60.3454 90.6263 60.2034C89.3611 60.1131 88.0957 60.0228 86.8305 59.9325C87.1774 59.9734 87.4938 59.9281 87.7795 59.797Z" fill="#39160D"/>
<path fill-rule="evenodd" clip-rule="evenodd" d="M70.4272 72.667C70.5627 72.667 70.6983 72.667 70.8339 72.667C70.8339 72.8025 70.8339 72.9379 70.8339 73.0734C70.3826 73.112 69.9759 73.0217 69.6138 72.8025C69.9817 72.8363 70.3432 72.859 70.6983 72.8702C70.5741 72.8325 70.4838 72.7648 70.4272 72.667Z" fill="#3D180E"/>
<path fill-rule="evenodd" clip-rule="evenodd" d="M70.4271 72.667C70.4838 72.7649 70.5741 72.8326 70.6982 72.8703C70.3432 72.859 69.9816 72.8364 69.6137 72.8025C68.745 72.4668 68.4061 71.8346 68.597 70.9059C69.1856 71.5167 69.7957 72.1037 70.4271 72.667Z" fill="#3D180E"/>
<path fill-rule="evenodd" clip-rule="evenodd" d="M57.9551 73.3444C59.6034 73.771 61.2753 73.9291 62.971 73.8185C63.1958 73.9167 63.2635 74.0748 63.1743 74.2927C62.9978 74.3719 62.8396 74.4622 62.6999 74.5636C62.5791 74.6463 62.4435 74.6914 62.2932 74.6991C62.2932 74.5636 62.2932 74.4282 62.2932 74.2927C62.4935 74.3282 62.6742 74.2831 62.8354 74.1572C61.3446 73.9593 59.8534 73.8915 58.3618 73.954C58.1743 73.7818 58.0387 73.5786 57.9551 73.3444Z" fill="#DD6E53"/>
<path fill-rule="evenodd" clip-rule="evenodd" d="M5.60017 68.8001C6.00017 68.4001 5.83245 68.2323 6.00017 68.4001C6.40017 68.8 6.24661 71.31 6.40017 72.8001C6.64189 75.1458 7.60039 77.2874 7.38962 79.5758C7.24353 80.3191 6.90541 81.0303 6.4212 81.5152C5.93699 82 5.39337 82.1315 4.80018 82.0001C3.20017 81.6001 3.02023 80.1291 3.03174 79.091C3.06583 76.0156 5.25933 73.0134 5.4528 69.8788C5.4528 69.388 5.60017 68.8001 5.60017 68.8001Z" fill="#261D0E"/>
<path fill-rule="evenodd" clip-rule="evenodd" d="M62.7002 74.5636C62.7119 74.6985 62.6666 74.8114 62.5646 74.9023C62.2257 75.0222 61.9095 75.1803 61.6157 75.3764C61.6776 75.4846 61.7681 75.5297 61.8868 75.5119C61.8405 75.6254 61.7502 75.6707 61.6157 75.6474C60.5316 76.0675 59.4019 76.3384 58.2266 76.4602C59.6059 75.9836 60.9616 75.3966 62.2935 74.6991C62.4439 74.6914 62.5794 74.6462 62.7002 74.5636Z" fill="#4A1911"/>
<path fill-rule="evenodd" clip-rule="evenodd" d="M53.2102 77.1377C51.2585 77.5238 49.2702 77.6368 47.2454 77.4764C47.0342 77.4479 46.8535 77.3802 46.7031 77.2732C48.8768 77.4665 51.0458 77.4214 53.2102 77.1377Z" fill="#722D23"/>
</svg>
